<svg width="26" height="26" viewBox="0 0 26 26" fill="none" xmlns="http://www.w3.org/2000/svg">
<path fill-rule="evenodd" clip-rule="evenodd" d="M6.32047 19.6796C5.982 19.3411 5.982 18.7923 6.32047 18.4539L17.841 6.93335H10.4C9.92131 6.93335 9.53329 6.54532 9.53329 6.06668C9.53329 5.58804 9.92131 5.20001 10.4 5.20001H19.9333C20.1631 5.20001 20.3836 5.29132 20.5462 5.45386C20.7086 5.61639 20.8 5.83682 20.8 6.06668V15.6C20.8 16.0787 20.4119 16.4667 19.9333 16.4667C19.4547 16.4667 19.0666 16.0787 19.0666 15.6V8.159L7.54611 19.6796C7.20766 20.0179 6.65892 20.0179 6.32047 19.6796Z" fill="#DDE8F0"/>
</svg>
