<svg width="150" height="58" viewBox="0 0 150 58" fill="none" xmlns="http://www.w3.org/2000/svg">
<g clip-path="url(#clip0_4040_219)">
<path d="M148.87 87.8403C148.228 91.4358 140.544 93.7574 129.28 93.7574H128.995C124.784 90.3286 119.669 86.8402 113.912 83.5661C112.259 82.6256 110.606 81.7327 108.953 80.8993C110.808 80.6611 112.664 80.3873 114.531 80.0659C120.894 78.9586 126.913 77.4109 132.182 75.5774C142.697 79.3039 149.548 84.0186 148.858 87.8284L148.87 87.8403ZM139.961 111.973C138.926 113.735 136.191 114.104 134.073 114.104C130.184 114.104 124.998 112.926 119.229 110.83C116.993 107.08 114.21 103.103 110.975 99.0555C110.868 98.9245 110.749 98.7816 110.642 98.6507C110.368 98.3054 110.094 97.972 109.809 97.6268C109.405 97.1386 109 96.6505 108.584 96.1743C107.359 94.7337 106.11 93.3407 104.861 92.0073C106.657 92.4002 108.489 92.7693 110.38 93.0907C116.648 94.1741 122.893 94.7694 128.519 94.817C137.107 101.865 141.912 108.616 139.949 111.961L139.961 111.973ZM100.662 144.476C100.329 144.595 99.9604 144.654 99.5798 144.654C95.8211 144.654 90.5281 139.035 85.5206 130.427C86.4246 125.129 86.9241 119.033 86.9241 112.497C86.9241 110.628 86.8766 108.771 86.7933 106.949C87.9114 108.39 89.077 109.83 90.314 111.283C93.359 114.854 96.4991 118.14 99.6035 121.01C100.781 122.093 101.935 123.129 103.089 124.093C105.063 134.939 104.349 143.154 100.662 144.476ZM75.006 148.94C71.0689 148.94 67.5482 141.464 65.6451 130.594C68.357 125.891 70.9619 120.331 73.198 114.259C73.8522 112.485 74.4469 110.735 75.006 109.009C75.5531 110.735 76.1597 112.485 76.8139 114.259C79.0501 120.319 81.6549 125.879 84.3669 130.594C82.4638 141.464 78.943 148.94 75.006 148.94ZM50.4322 144.666C50.0516 144.666 49.6828 144.607 49.3498 144.488C45.6507 143.166 44.937 134.951 46.9234 124.105C51.1221 120.581 55.4992 116.212 59.686 111.295C60.923 109.854 62.0887 108.401 63.2068 106.961C63.1235 108.771 63.0759 110.616 63.0759 112.509C63.0759 119.045 63.5874 125.141 64.4795 130.439C59.4838 139.047 54.1789 144.666 50.4322 144.666ZM29.3435 132.439C28.273 132.439 27.4166 132.177 26.7862 131.653C24.6809 129.915 25.0615 125.26 27.8329 118.878C28.8201 116.604 30.069 114.188 31.5439 111.699C36.7418 109.783 42.3916 107.151 48.0176 103.949C49.671 103.008 51.2767 102.044 52.8349 101.068C52.1212 102.746 51.4432 104.461 50.789 106.235C48.5172 112.402 46.8758 118.319 45.8766 123.617C39.2872 129.117 33.2686 132.439 29.3554 132.439H29.3435ZM15.9266 114.116C13.8094 114.116 11.0737 113.747 10.0389 111.985C8.07631 108.628 12.8816 101.889 21.4694 94.8409C27.0835 94.7932 33.3281 94.1979 39.6083 93.1145C41.4995 92.7812 43.3431 92.4121 45.1392 92.0311C43.8903 93.3645 42.6414 94.7575 41.4163 96.1981C37.2532 101.091 33.6373 106.104 30.7946 110.854C25.0139 112.961 19.828 114.14 15.9266 114.14V114.116ZM20.72 93.7693C9.46796 93.7693 1.78419 91.4477 1.13 87.8522C0.452019 84.0424 7.29129 79.3277 17.794 75.6012C22.9324 77.399 28.9272 78.9467 35.4572 80.0778C37.3246 80.3992 39.192 80.685 41.0356 80.9231C39.3823 81.7565 37.7409 82.6494 36.0757 83.59C30.3188 86.864 25.2161 90.3524 21.0055 93.7812H20.7081L20.72 93.7693ZM10.0389 38.0387C11.0737 36.2767 13.8094 35.9076 15.9266 35.9076C19.8161 35.9076 25.002 37.0863 30.7708 39.1817C33.5422 43.813 37.1343 48.8134 41.4044 53.8376C42.6295 55.2782 43.8784 56.6712 45.1273 58.0046C43.3312 57.6117 41.4876 57.2426 39.5964 56.9212C36.3255 56.3497 33.0545 55.9211 29.8787 55.6234C26.9765 55.3615 24.1456 55.2187 21.4575 55.1948C12.8698 48.1467 8.06442 41.408 10.027 38.0506L10.0389 38.0387ZM26.7862 18.3705C27.4166 17.8466 28.273 17.5847 29.3435 17.5847C33.2567 17.5847 39.2872 20.9183 45.8766 26.4068C46.8758 31.7049 48.5053 37.622 50.789 43.7773C51.4432 45.5512 52.1331 47.2775 52.8349 48.9562C51.2886 47.98 49.6828 47.0156 48.0176 46.0751C42.4035 42.8724 36.7656 40.2532 31.5677 38.3364C25.9417 28.8118 23.765 20.8588 26.7743 18.3705H26.7862ZM49.3498 5.53614C49.6828 5.41708 50.0516 5.35755 50.4322 5.35755C54.1789 5.35755 59.4838 10.977 64.4795 19.573C63.5755 24.871 63.0759 30.9667 63.0759 37.5149C63.0759 38.1459 63.0759 38.7769 63.0878 39.4079C63.0878 39.8484 63.0997 40.2889 63.1235 40.7294C63.1235 40.8961 63.1235 41.0747 63.1354 41.2414C63.1473 41.8605 63.183 42.4676 63.2068 43.0629C62.0887 41.6223 60.923 40.1817 59.686 38.7292C55.4992 33.8122 51.1221 29.4428 46.9234 25.9187C44.937 15.0726 45.6507 6.86958 49.3498 5.53614ZM99.5798 5.35755C99.9604 5.35755 100.317 5.41708 100.662 5.53614C103.231 6.45288 104.492 10.9651 104.112 17.8943C103.981 20.3706 103.636 23.0613 103.124 25.8949C98.9256 29.4309 94.5247 33.8003 90.3259 38.7292C89.1008 40.1698 87.9352 41.6104 86.8052 43.0629C86.8885 41.2533 86.936 39.4079 86.936 37.5149C86.936 36.8601 86.936 36.2171 86.9241 35.5623C86.9241 35.4909 86.9241 35.4195 86.9241 35.348C86.9241 34.8123 86.9004 34.2765 86.8885 33.7408C86.8766 33.2764 86.8528 32.8359 86.8409 32.3835C86.8409 32.2406 86.8409 32.0978 86.829 31.9668C86.6268 27.5141 86.1867 23.3471 85.5444 19.573C90.5519 10.9651 95.8449 5.35755 99.6035 5.35755H99.5798ZM120.668 17.5847C121.727 17.5847 122.595 17.8585 123.226 18.3705C126.235 20.8588 124.07 28.8118 118.444 38.3364C113.246 40.2532 107.62 42.8724 102.006 46.0751C100.341 47.0156 98.7353 47.98 97.189 48.9562C97.9026 47.2775 98.5806 45.5512 99.2348 43.7773C101.447 37.7768 103.112 31.8358 104.123 26.4187C110.713 20.9064 116.755 17.5728 120.668 17.5728V17.5847ZM134.085 35.9076C136.203 35.9076 138.938 36.2767 139.973 38.0387C141.341 40.3841 139.366 44.6226 134.561 49.6944C132.848 51.5041 130.838 53.3495 128.59 55.1829C122.964 55.2306 116.696 55.8258 110.416 56.9093C108.524 57.2307 106.681 57.5998 104.897 57.9927C106.145 56.6592 107.382 55.2663 108.619 53.8257C112.89 48.8134 116.482 43.813 119.253 39.1698C125.022 37.0744 130.208 35.8957 134.097 35.8957L134.085 35.9076ZM95.1194 75.0059C98.9375 73.732 103.041 72.0295 107.24 69.9698C109.583 70.2437 111.974 70.577 114.364 70.9937C120.217 72.0057 125.724 73.4106 130.553 75.0178C125.664 76.6489 120.157 78.0181 114.364 79.0182C111.974 79.4349 109.595 79.7682 107.24 80.0421C103.029 77.9824 98.9256 76.2798 95.1075 75.0059H95.1194ZM95.6665 80.7445C94.5603 80.7445 93.4898 80.7207 92.455 80.6731C90.6233 79.292 88.8391 78.1014 87.162 77.1132C89.1008 76.7561 91.1823 76.2322 93.3947 75.5536C97.07 76.7085 101.078 78.2919 105.206 80.2445C101.887 80.5659 98.6758 80.7326 95.6665 80.7326V80.7445ZM93.9061 81.7922C94.489 81.8041 95.0599 81.816 95.6665 81.816C99.2348 81.816 103.089 81.5898 107.049 81.1493C109.143 82.1851 111.272 83.3042 113.377 84.5186C118.528 87.4474 123.214 90.6143 127.187 93.7574C121.989 93.6384 116.303 93.055 110.594 92.0668C108.179 91.6501 105.824 91.162 103.541 90.6262C100.293 87.2688 97.0225 84.2924 93.8942 81.816L93.9061 81.7922ZM117.552 110.211C112.783 108.366 107.656 105.925 102.541 103.02C100.412 101.818 98.3665 100.556 96.4159 99.2817C94.5247 95.0194 92.4907 91.1382 90.4092 87.7689C94.1202 89.1856 98.3665 90.4834 103.005 91.5787C104.611 93.2574 106.205 95.0194 107.775 96.8648C111.593 101.353 114.9 105.913 117.552 110.199V110.211ZM91.1585 110.604C89.5885 108.759 88.1017 106.889 86.6982 105.032C86.4127 100.46 85.8536 96.1148 85.0686 92.2097C88.0541 94.7932 91.5867 97.4363 95.5357 100.008C96.4753 102.127 97.3555 104.33 98.2 106.592C100.234 112.104 101.768 117.509 102.767 122.438C102.446 122.164 102.137 121.879 101.804 121.593C98.2833 118.438 94.6555 114.723 91.1466 110.604H91.1585ZM72.4011 92.9359C73.4597 90.912 74.3399 88.9951 75.0179 87.1974C75.6958 88.9951 76.576 90.912 77.6346 92.9359C77.1232 96.6862 76.2549 100.841 75.0179 105.211C73.7927 100.841 72.9126 96.6743 72.4011 92.9359ZM66.3469 90.9596C67.4649 89.9476 68.4997 88.9237 69.4513 87.9236C69.9271 87.4236 70.3672 86.9355 70.7835 86.4592C70.7954 88.3761 70.9619 90.4834 71.2474 92.7335C69.4632 96.079 67.2033 99.6984 64.527 103.389C64.8839 98.865 65.5143 94.6504 66.335 90.9596H66.3469ZM64.9433 92.1978C64.1702 96.0433 63.6112 100.365 63.3257 105.044C61.9341 106.889 60.4473 108.759 58.8653 110.604C55.0472 115.092 51.0745 119.117 47.2564 122.438C48.2555 117.509 49.778 112.104 51.8119 106.592C52.6564 104.318 53.5366 102.115 54.4763 100.008C58.3538 97.472 61.8984 94.8289 64.9314 92.2097L64.9433 92.1978ZM61.3274 87.0902C63.4565 86.2211 65.3834 85.2925 67.0724 84.3519C66.4182 86.1616 65.8354 88.2094 65.324 90.4357C62.4455 93.0193 59.0556 95.6385 55.3208 98.1625C57.2239 94.0432 59.2697 90.2929 61.3274 87.0902ZM59.6265 87.757C57.545 91.1263 55.4992 95.0194 53.6199 99.2817C51.6573 100.556 49.6115 101.806 47.4943 103.008C42.3678 105.925 37.2294 108.366 32.4479 110.211C35.1479 105.854 38.4783 101.306 42.2608 96.8648C43.8427 95.0194 45.4366 93.2574 47.0304 91.5787C51.6692 90.4834 55.9155 89.1856 59.6265 87.757ZM57.9138 81.7327C58.1873 81.7208 58.449 81.7089 58.7226 81.697C59.5909 81.6493 60.4354 81.5779 61.2442 81.5065C62.3385 81.3993 63.3852 81.2683 64.3724 81.1017C63.1354 82.578 61.8865 84.2805 60.6495 86.1854C57.0812 87.626 52.9538 88.9713 48.4696 90.1262C51.6811 86.8878 54.8926 84.0543 57.9257 81.7446L57.9138 81.7327ZM54.3692 81.816C54.964 81.816 55.5468 81.816 56.1296 81.7922C53.0014 84.2686 49.7423 87.245 46.4952 90.6024C44.2114 91.1382 41.8563 91.6263 39.4418 92.043C33.7325 93.0312 28.0351 93.6146 22.8372 93.7455C26.8219 90.6024 31.4963 87.4355 36.6466 84.5067C38.7638 83.3042 40.881 82.1732 42.9744 81.1374C46.9352 81.5779 50.789 81.8041 54.3573 81.8041L54.3692 81.816ZM19.5187 75.0178C24.3359 73.4106 29.8311 72.0176 35.6713 71.0056C38.062 70.5889 40.4409 70.2437 42.7841 69.9817C46.9947 72.0414 51.0983 73.732 54.9164 75.0178C51.0983 76.2918 46.9947 77.9943 42.7841 80.054C40.4409 79.7801 38.062 79.4468 35.6713 79.0301C29.8311 78.0181 24.3359 76.6251 19.5187 75.0178ZM20.7438 56.2544C20.839 56.2544 20.946 56.2544 21.0412 56.2544C25.2518 59.6833 30.3664 63.1598 36.1114 66.4338C37.7647 67.3744 39.418 68.2554 41.0713 69.1007C39.2277 69.3388 37.3603 69.6127 35.4929 69.9341C28.9628 71.0652 22.9681 72.6248 17.8297 74.4107C7.29129 70.6842 0.440125 65.9814 1.13 62.1597C1.29652 61.2191 1.95071 60.3738 3.00931 59.6238C6.01859 57.5046 12.394 56.2306 20.72 56.2306L20.7438 56.2544ZM39.4418 57.9808C41.8563 58.3975 44.2114 58.8856 46.4952 59.4214C49.7423 62.7907 53.0014 65.7552 56.1296 68.2316C55.5587 68.2197 54.9758 68.2078 54.3692 68.2078C50.789 68.2078 46.9471 68.434 42.9863 68.8745C40.8929 67.8387 38.7757 66.7196 36.6585 65.5052C31.5082 62.5764 26.8219 59.4095 22.8491 56.2664C25.0972 56.314 27.4285 56.4568 29.8192 56.6831C32.9594 56.9688 36.2065 57.4093 39.4418 57.9689V57.9808ZM59.6265 62.2668C55.9155 60.8381 51.6692 59.5404 47.0304 58.4451C45.4247 56.7783 43.8308 55.0044 42.2608 53.159C38.4427 48.6705 35.136 44.1106 32.4836 39.8246C37.2532 41.67 42.3797 44.1106 47.4943 47.0156C49.6234 48.23 51.6692 49.4801 53.6199 50.7421C55.5111 55.0043 57.545 58.8975 59.6265 62.2668ZM65.3358 59.6357C65.8473 61.8501 66.4301 63.8741 67.0724 65.6838C65.3715 64.7432 63.4565 63.8265 61.3274 62.9455C59.2697 59.7547 57.2358 56.0044 55.3327 51.8851C59.127 54.4567 62.505 57.0878 65.3358 59.6357ZM64.9433 57.8141C61.9578 55.2425 58.4371 52.5994 54.4763 50.0278C53.5485 47.9086 52.6564 45.706 51.8119 43.4439C49.778 37.9316 48.2436 32.5264 47.2564 27.5974C51.0745 30.9191 55.0472 34.9432 58.8653 39.4317C60.4354 41.2771 61.9222 43.1463 63.3257 44.9917C63.6112 49.6587 64.1702 53.9805 64.9433 57.8141ZM65.3834 21.1445C67.8218 25.5615 70.1769 30.6572 72.1989 36.1338C73.0434 38.4078 73.7809 40.658 74.4469 42.8605C73.1029 47.3371 72.1275 51.5874 71.5209 55.4568C69.6059 52.0279 67.2152 48.361 64.3962 44.6107C64.2535 42.3129 64.1821 39.9436 64.1821 37.5268C64.1821 31.6811 64.6222 26.0973 65.3834 21.1445ZM85.1043 57.8141C85.8774 53.9805 86.4365 49.6468 86.7219 44.9797C88.1136 43.1225 89.6123 41.2652 91.1704 39.4317C95.0004 34.9313 98.985 30.9072 102.815 27.5736C101.804 32.574 100.246 37.9792 98.2238 43.4439C97.3912 45.706 96.4991 47.9086 95.5595 50.0278C91.6105 52.5994 88.0898 55.2425 85.1043 57.8141ZM88.7202 62.9455C86.5911 63.8265 84.6642 64.7432 82.9633 65.6838C83.0704 65.3742 83.1893 65.0647 83.2845 64.7432C83.8078 63.1836 84.2836 61.4692 84.6999 59.6357C87.5308 57.0878 90.9207 54.4567 94.7031 51.8851C92.8 55.9925 90.7541 59.7428 88.7083 62.9336L88.7202 62.9455ZM90.4092 62.2787C92.4907 58.9094 94.5247 55.0282 96.4159 50.7659C98.3665 49.492 100.412 48.2419 102.541 47.0275C107.656 44.1225 112.783 41.6819 117.552 39.8365C114.9 44.1225 111.593 48.6824 107.775 53.1709C106.205 55.0163 104.599 56.7902 103.005 58.457C98.3665 59.5523 94.1202 60.8501 90.4092 62.2787ZM92.1339 68.303C89.7669 68.4102 87.6021 68.6245 85.6752 68.934C86.9122 67.4577 88.1612 65.7552 89.3982 63.8503C92.9665 62.3978 97.0938 61.0524 101.578 59.9095C98.3665 63.1479 95.1551 65.9814 92.122 68.2911L92.1339 68.303ZM95.6665 68.2197C95.0718 68.2197 94.489 68.2197 93.9061 68.2435C97.0344 65.7671 100.293 62.8026 103.552 59.4333C105.824 58.8975 108.179 58.4094 110.606 57.9927C116.327 56.9926 122.024 56.4211 127.246 56.2902C123.202 59.469 118.492 62.624 113.389 65.529C111.272 66.7315 109.155 67.8625 107.061 68.8983C103.101 68.4578 99.2586 68.2316 95.6784 68.2316L95.6665 68.2197ZM87.162 72.9105C88.8391 71.9343 90.6233 70.7318 92.455 69.3507C93.4898 69.315 94.5603 69.2912 95.6546 69.2912C98.6639 69.2912 101.887 69.4579 105.206 69.7793C101.067 71.7319 97.07 73.3153 93.3947 74.4821C91.1942 73.8035 89.1008 73.2796 87.162 72.9224V72.9105ZM82.8801 75.0297C83.7721 74.6845 84.6999 74.2559 85.6633 73.7439C87.4713 74.0059 89.4339 74.4464 91.5273 75.0297C89.4339 75.6131 87.4713 76.0417 85.6633 76.3156C84.6999 75.8036 83.7602 75.375 82.8801 75.0297ZM85.6752 81.1136C87.6021 81.435 89.7669 81.6493 92.1339 81.7446C95.1669 84.0543 98.3665 86.8878 101.59 90.1262C97.1057 88.9832 92.9784 87.6379 89.4101 86.1854C88.173 84.2805 86.9241 82.578 85.6871 81.1017L85.6752 81.1136ZM82.3448 82.7685C81.9285 81.7565 81.4884 80.8516 81.0483 80.0182C81.9523 80.3159 82.9395 80.5778 84.0219 80.804C85.1995 82.1256 86.4008 83.6733 87.6021 85.4234C85.6395 84.5543 83.8792 83.6614 82.3567 82.7566L82.3448 82.7685ZM83.5818 86.233C83.3796 85.5782 83.1655 84.9591 82.9633 84.3638C84.6523 85.3044 86.5911 86.233 88.7202 87.114C90.7779 90.3167 92.8119 94.0551 94.715 98.1744C90.9207 95.6028 87.5308 92.9716 84.6999 90.4238C84.3669 88.9475 83.9862 87.5665 83.5937 86.2449L83.5818 86.233ZM79.2166 84.7686C79.169 83.6733 79.0739 82.6613 78.9311 81.7327C79.6805 82.316 80.525 82.9113 81.4646 83.4947C81.8452 84.4353 82.2021 85.4472 82.5351 86.5426C82.7849 87.3522 83.0228 88.1975 83.2488 89.0666C81.6906 87.5903 80.3347 86.1378 79.2166 84.7686ZM78.7765 92.7574C79.062 90.5072 79.2166 88.3999 79.2404 86.483C80.5131 87.9474 82.0118 89.4714 83.7127 91.0191C84.5572 94.7694 85.1519 98.9721 85.5087 103.437C82.8325 99.7341 80.5606 96.1148 78.7884 92.7574H78.7765ZM72.3654 80.6254C72.7104 80.2921 73.0196 79.9706 73.3051 79.6492C73.3051 80.0659 73.3289 80.5064 73.3764 80.9707C73.0077 81.685 72.5319 82.4351 71.9848 83.2209C72.0681 82.2803 72.187 81.4112 72.3654 80.6373V80.6254ZM70.5694 79.411C70.9976 79.2206 71.4139 79.0182 71.7826 78.8158C71.6399 79.2086 71.509 79.6373 71.402 80.0897C70.7954 80.6254 70.1055 81.1731 69.3086 81.7208C69.713 80.8635 70.1293 80.1016 70.5694 79.423V79.411ZM68.9755 80.0182C68.5117 80.8397 68.0835 81.7684 67.6671 82.7685C66.1447 83.6733 64.3724 84.5662 62.4098 85.4353C63.6112 83.6852 64.8125 82.1375 65.99 80.8159C67.0724 80.5897 68.0716 80.3278 68.9755 80.0182ZM64.3486 73.7439C65.3121 74.2559 66.2517 74.6845 67.1319 75.0297C66.2398 75.375 65.3121 75.8036 64.3486 76.3156C62.5407 76.0536 60.5781 75.625 58.4847 75.0297C60.5781 74.4464 62.5407 74.0059 64.3486 73.7439ZM62.8499 72.9105C60.9111 73.2677 58.8296 73.7916 56.6292 74.4702C52.9538 73.3153 48.9454 71.72 44.8061 69.7674C48.1247 69.446 51.3362 69.2793 54.3573 69.2793C55.4635 69.2793 56.534 69.3031 57.5569 69.3388C59.3887 70.7199 61.1728 71.9105 62.8499 72.8986V72.9105ZM65.4905 70.2556C66.216 71.0532 66.9416 71.7557 67.6434 72.3748C66.6561 72.3986 65.6094 72.4938 64.4913 72.6486C62.9094 71.7914 61.2204 70.7318 59.46 69.4698C61.6843 69.6246 63.7063 69.8865 65.4905 70.2556ZM60.6138 63.8622C61.8508 65.7671 63.1116 67.4696 64.3367 68.9459C62.4098 68.6245 60.2451 68.4221 57.89 68.3149C54.8569 66.0052 51.6454 63.1717 48.4339 59.9333C52.9181 61.0763 57.0455 62.4216 60.6138 63.8741V63.8622ZM70.7716 63.5765C69.5108 62.124 68.024 60.6119 66.3231 59.0642C65.5024 55.3734 64.8839 51.1707 64.5151 46.6465C67.1795 50.3373 69.4513 53.9566 71.2355 57.3022C70.9381 59.5642 70.7835 61.6596 70.7716 63.5765ZM74.4351 64.4694C74.0901 65.5171 73.8284 66.4934 73.6381 67.4101C73.1386 66.6005 72.5557 65.779 71.8778 64.9218C71.8421 63.1717 71.9372 61.2191 72.1632 59.1118C73.1029 61.0167 73.876 62.8264 74.4469 64.4813L74.4351 64.4694ZM77.6227 57.1236C76.921 58.457 76.3025 59.7666 75.7553 61.0286C75.4818 61.6596 75.2439 62.2668 75.0179 62.8502C74.3399 61.0525 73.4597 59.1356 72.4011 57.0998C72.9126 53.3495 73.7809 49.1944 75.0179 44.825C76.2549 49.1944 77.1232 53.3614 77.6346 57.1117L77.6227 57.1236ZM78.5148 55.4925C77.9082 51.6231 76.9329 47.3609 75.5769 42.8724C76.243 40.6699 76.9923 38.4078 77.8249 36.1457C79.847 30.6691 82.1902 25.5734 84.6404 21.1564C85.4136 26.1092 85.8418 31.693 85.8418 37.5387C85.8418 39.9555 85.7704 42.3248 85.6158 44.6226C82.8563 48.3133 80.4417 51.9922 78.491 55.4806L78.5148 55.4925ZM83.6889 59.0761C81.9999 60.6119 80.5012 62.124 79.2523 63.5884C79.2285 61.6715 79.0739 59.5523 78.7765 57.2902C80.5844 53.8852 82.8563 50.2897 85.4968 46.6465C85.14 51.1826 84.5096 55.3972 83.6889 59.088V59.0761ZM81.4646 66.5886C80.525 67.1601 79.6805 67.7554 78.9311 68.3387C79.0739 67.3982 79.169 66.3862 79.2166 65.3028C80.3228 63.9336 81.6787 62.5049 83.2131 61.0286C83.1536 61.2668 83.0942 61.5049 83.0347 61.7311C82.5589 63.505 82.0356 65.1361 81.4646 66.5767V66.5886ZM81.0364 70.0532C81.5003 69.2317 81.9285 68.3149 82.3448 67.3029C83.8673 66.3981 85.6277 65.4933 87.5902 64.6361C86.3889 66.3862 85.1876 67.9459 84.0219 69.2555C82.9395 69.4817 81.9404 69.7436 81.0364 70.0532ZM80.7153 72.4105C80.2395 72.4462 79.7756 72.4938 79.3593 72.5653C79.621 72.2557 79.8827 71.9105 80.1325 71.5533C80.8818 71.2437 81.7382 70.9699 82.666 70.708C81.9999 71.3628 81.3457 71.9343 80.7153 72.4105ZM82.3686 72.3986C83.0823 71.7795 83.7959 71.0651 84.5215 70.2794C86.3056 69.9103 88.3277 69.6484 90.5519 69.4936C88.7916 70.7437 87.1026 71.8152 85.5206 72.6724C84.4025 72.5176 83.3439 72.4224 82.3686 72.3986ZM81.0483 74.4345C80.6677 74.3273 80.299 74.244 79.9421 74.1844C80.3109 73.982 80.6677 73.7439 81.0364 73.4701C81.31 73.4582 81.5836 73.4582 81.8452 73.4582C82.4519 73.4582 83.106 73.4939 83.7721 73.5534C82.9038 73.9463 82.0712 74.2678 81.2862 74.5059C81.2148 74.4821 81.1316 74.4583 81.0602 74.4345H81.0483ZM82.3686 77.7085C83.3558 77.6847 84.4025 77.5895 85.5206 77.4347C87.1026 78.28 88.7916 79.3515 90.5519 80.6135C88.3277 80.4587 86.3056 80.1849 84.5215 79.8278C83.7959 79.0301 83.0704 78.3157 82.3686 77.7085ZM79.3712 77.5418C79.7994 77.6133 80.2395 77.649 80.7153 77.6847C81.3457 78.1609 81.9999 78.7324 82.666 79.3872C81.7382 79.1372 80.8937 78.8634 80.1443 78.5538C79.8946 78.1848 79.6329 77.8514 79.3712 77.5418ZM78.2293 78.8396C78.5981 79.042 79.0025 79.2444 79.4307 79.4349C79.8708 80.1016 80.2871 80.8755 80.7034 81.7327C79.9184 81.1969 79.2166 80.6492 78.6219 80.1135C78.5148 79.6611 78.384 79.2444 78.2412 78.8396H78.2293ZM76.6474 81.0183C76.695 80.554 76.7188 80.1016 76.7307 79.673C77.0161 79.9944 77.3135 80.3278 77.6703 80.6492C77.8487 81.435 77.9677 82.3041 78.0509 83.2447C77.4919 82.4708 77.028 81.7208 76.6593 81.0064L76.6474 81.0183ZM69.3205 77.6847C69.7962 77.649 70.2601 77.6014 70.6764 77.53C70.4147 77.8395 70.165 78.1848 69.9152 78.5419C69.1658 78.8515 68.3094 79.1372 67.3817 79.3872C68.0478 78.7324 68.702 78.1609 69.3324 77.6847H69.3205ZM67.6671 77.7085C66.9535 78.3157 66.2398 79.0301 65.5143 79.8278C63.7301 80.1849 61.7081 80.4468 59.4838 80.6135C61.2442 79.3515 62.9332 78.28 64.5151 77.4347C65.6332 77.5895 66.6918 77.6847 67.6671 77.7085ZM70.0936 75.9227C69.7368 76.137 69.368 76.3632 68.9993 76.637C68.7257 76.6489 68.4522 76.6608 68.1905 76.6608C67.5839 76.6608 66.9297 76.6251 66.2636 76.5656C67.1319 76.1727 67.9764 75.8512 68.7495 75.6012C69.2134 75.7441 69.6535 75.8393 70.0936 75.9227ZM68.9993 73.4701C69.368 73.7439 69.7368 73.982 70.0936 74.1844C69.6654 74.2678 69.2134 74.3749 68.7495 74.5059C67.9645 74.2678 67.1319 73.9463 66.2636 73.5534C66.9297 73.4939 67.5839 73.4582 68.1905 73.4582C68.4522 73.4582 68.7257 73.4582 68.9993 73.4701ZM69.9033 71.5533C70.1531 71.9224 70.4147 72.2557 70.6764 72.5653C70.2482 72.4938 69.8081 72.4462 69.3324 72.4105C68.702 71.9343 68.0478 71.3628 67.3817 70.708C68.3094 70.958 69.1539 71.2318 69.9033 71.5533ZM67.6909 67.3148C67.6909 67.3148 67.7028 67.3625 67.7147 67.3863C67.7504 67.4577 67.7742 67.5292 67.8099 67.6006C67.8931 67.7911 67.9645 67.9578 68.0478 68.1363C68.357 68.8269 68.6782 69.4698 68.9993 70.0532C68.0953 69.7555 67.0962 69.4936 66.0138 69.2555C64.8482 67.9339 63.6468 66.3862 62.4455 64.6361C64.4081 65.5052 66.1803 66.3981 67.7028 67.3029L67.6909 67.3148ZM73.3051 70.4222C73.0315 70.1008 72.7223 69.7674 72.3773 69.446C72.1989 68.6602 72.0681 67.7911 71.9848 66.8505C72.5438 67.6244 72.9958 68.3626 73.3764 69.0769C73.3289 69.5531 73.3051 69.9936 73.2932 70.4222H73.3051ZM75.5531 68.8983C75.339 69.315 75.1606 69.7317 75.0179 70.1365C74.8751 69.7436 74.6967 69.3388 74.4945 68.9221C74.6016 68.1244 74.78 67.2672 75.0298 66.3386C75.2795 67.2553 75.458 68.1125 75.565 68.9102L75.5531 68.8983ZM77.6584 69.446C77.3135 69.7793 77.0042 70.1008 76.7188 70.4341C76.7188 70.0055 76.695 69.565 76.6355 69.0888C77.0161 68.3745 77.48 67.6244 78.0271 66.8505C77.9439 67.7911 77.813 68.6602 77.6465 69.446H77.6584ZM79.4545 70.6604C79.0144 70.8508 78.61 71.0532 78.2293 71.2675C78.3721 70.8747 78.5029 70.4461 78.61 69.9936C79.2166 69.4579 79.9065 68.9102 80.7034 68.3745C80.299 69.2317 79.8827 69.9936 79.4545 70.6723V70.6604ZM71.4258 69.9936C71.5328 70.4461 71.6637 70.8628 71.8064 71.2675C71.4377 71.0532 71.0333 70.8628 70.6051 70.6723C70.165 70.0055 69.7487 69.2317 69.3324 68.3745C70.1174 68.9102 70.8192 69.4579 71.4139 69.9936H71.4258ZM81.0483 76.6251C80.6796 76.3513 80.3109 76.1251 79.954 75.9108C80.3822 75.8274 80.8342 75.7322 81.2981 75.5893C82.0831 75.8274 82.9157 76.1489 83.784 76.5537C83.1179 76.6132 82.4638 76.6489 81.8571 76.6489C81.5955 76.6489 81.3338 76.6489 81.0483 76.6251ZM78.158 64.9218C77.48 65.779 76.8853 66.6243 76.3857 67.422C76.1954 66.4934 75.9337 65.5052 75.5888 64.4694C75.9218 63.5169 76.3025 62.5168 76.7663 61.4572C77.0994 60.6834 77.48 59.8857 77.8725 59.0761C78.0985 61.1953 78.1937 63.1717 78.158 64.9337V64.9218ZM70.8192 65.3028C70.8548 66.3862 70.95 67.3982 71.0927 68.3387C70.3434 67.7554 69.4989 67.1601 68.5711 66.5886C67.9288 64.9575 67.3341 63.0883 66.8107 61.0286C68.3451 62.5049 69.7011 63.9336 70.8192 65.3028ZM74.9465 83.4947C74.7324 82.6851 74.5778 81.9232 74.4826 81.2088C74.6967 80.7921 74.8751 80.3754 75.0179 79.9706C75.1725 80.3754 75.339 80.7802 75.5531 81.1969C75.4461 81.9946 75.2677 82.8518 75.0179 83.7685C74.9941 83.6733 74.9703 83.59 74.9465 83.4947ZM77.8725 90.9715C76.9329 89.0666 76.1716 87.2688 75.5888 85.602C75.9337 84.5662 76.1954 83.578 76.3857 82.6494C76.8853 83.459 77.48 84.2924 78.158 85.1615C78.1937 86.9116 78.0985 88.8642 77.8725 90.9715ZM44.818 80.2921C48.9573 78.3395 52.9538 76.7561 56.6411 75.6012C58.8415 76.2798 60.9349 76.8037 62.8618 77.1609C61.1847 78.149 59.4006 79.3396 57.5688 80.7088C56.534 80.7564 55.4754 80.7802 54.3692 80.7802C51.36 80.7802 48.1366 80.6135 44.818 80.2921ZM68.6663 87.2331C68.0835 87.8522 67.453 88.4713 66.7989 89.1023C67.3222 87.0307 67.9169 85.1496 68.5592 83.5066C69.4989 82.9232 70.3315 82.3399 71.0808 81.7446C70.9381 82.6851 70.8429 83.6971 70.7954 84.7924C70.165 85.5782 69.4513 86.3997 68.6544 87.2331H68.6663ZM71.8896 85.1734C72.5676 84.3162 73.1623 83.4709 73.6619 82.6732C73.8522 83.6019 74.1139 84.5781 74.4588 85.6139C73.8879 87.2688 73.1148 89.0785 72.1751 90.9834C71.9491 88.8761 71.854 86.9236 71.8896 85.1734ZM80.8104 6.94101C80.858 7.04816 80.9056 7.15531 80.9651 7.27437C81.0245 7.40533 81.084 7.5363 81.1435 7.66726C82.4638 10.7627 83.5699 14.7988 84.3906 19.4539C81.6906 24.1567 79.0857 29.7166 76.8377 35.7766C76.1835 37.5506 75.5769 39.3126 75.0298 41.039C74.4826 39.3126 73.876 37.5625 73.2218 35.7766C70.9857 29.7166 68.3808 24.1567 65.6689 19.4539C67.572 8.5959 71.0927 1.10722 75.0298 1.10722C75.2082 1.10722 75.3747 1.11912 75.5531 1.15484C77.3967 1.47629 79.2285 3.51217 80.8223 6.94101H80.8104ZM64.3962 105.461C67.2152 101.71 69.6178 98.0435 71.5209 94.6146C72.1275 98.4721 73.1029 102.722 74.4588 107.211C73.7927 109.413 73.0434 111.676 72.2108 113.938C70.1888 119.414 67.8456 124.522 65.3953 128.927C64.6341 123.974 64.194 118.39 64.194 112.545C64.194 110.128 64.2654 107.759 64.4081 105.461H64.3962ZM85.8655 112.545C85.8655 118.39 85.4255 123.974 84.6642 128.927C82.2259 124.522 79.8708 119.414 77.8487 113.938C77.0042 111.664 76.2668 109.413 75.6007 107.211C76.9448 102.734 77.9201 98.484 78.5267 94.6146C80.4417 98.0435 82.8325 101.71 85.6633 105.473C85.7942 107.782 85.8655 110.14 85.8655 112.545ZM123.749 123.141C123.797 123.307 123.844 123.474 123.892 123.629C123.951 123.855 124.023 124.093 124.082 124.319C124.082 124.343 124.082 124.367 124.094 124.379C124.867 127.593 124.724 129.998 123.606 131.308C123.499 131.439 123.369 131.558 123.238 131.677C122.607 132.201 121.751 132.463 120.68 132.463C116.767 132.463 110.737 129.129 104.147 123.641C103.16 118.343 101.519 112.426 99.2348 106.258C98.5806 104.484 97.8908 102.77 97.189 101.091C98.7353 102.056 100.341 103.032 102.006 103.973C107.62 107.163 113.246 109.794 118.444 111.711C120.871 115.831 122.667 119.652 123.666 122.867C123.69 122.95 123.725 123.045 123.749 123.141ZM129.304 56.2902C140.556 56.2902 148.24 58.6118 148.894 62.2192C149.37 64.8742 146.039 68.2078 139.759 71.339C137.523 72.4581 135.001 73.5058 132.266 74.4821C127.115 72.6843 121.097 71.1366 114.555 69.9936C112.687 69.6722 110.82 69.3864 108.976 69.1602C110.63 68.3149 112.271 67.4339 113.936 66.4934C119.539 63.3026 124.677 59.8143 128.995 56.314C129.102 56.314 129.209 56.314 129.316 56.314L129.304 56.2902ZM133.836 75.0417C136.155 74.1844 138.308 73.2558 140.247 72.2914C147.086 68.8745 150.535 65.2314 149.952 62.0287C149.215 57.8855 141.876 55.3615 130.267 55.2306C132.147 53.6352 133.859 52.0398 135.346 50.4683C140.58 44.9559 142.566 40.3722 140.913 37.5506C139.878 35.7766 137.582 34.8837 134.085 34.8837C130.362 34.8837 125.486 35.9195 120.074 37.7887C125.545 28.1927 127.282 20.3706 123.928 17.5966C123.095 16.918 122.001 16.5608 120.68 16.5608C116.743 16.5608 110.856 19.6801 104.421 24.8829C104.825 22.4541 105.087 20.1563 105.218 17.9895C105.634 10.4532 104.159 5.69091 101.055 4.57178C100.603 4.4051 100.115 4.32176 99.6035 4.32176C95.6189 4.32176 90.3021 9.6198 85.2589 17.9776C84.4858 13.9654 83.4867 10.4532 82.3091 7.64345C82.2972 7.59583 82.2734 7.5482 82.2616 7.51249C82.1664 7.29818 82.0712 7.09579 81.988 6.88148C81.9047 6.7148 81.8333 6.54812 81.762 6.38144C81.7501 6.34573 81.7263 6.32192 81.7144 6.2862C79.7756 2.22635 77.48 0.0476074 75.0417 0.0476074C70.6526 0.0476074 66.8821 7.15531 64.8125 17.9895C59.7574 9.6317 54.4406 4.33366 50.4679 4.33366C49.9564 4.33366 49.4687 4.417 49.0168 4.58368C44.8894 6.05999 43.8189 14.0011 45.6269 24.871C39.192 19.6801 33.3043 16.5727 29.3791 16.5727C28.0589 16.5727 26.9527 16.918 26.132 17.6085C22.7659 20.3826 24.5143 28.2046 29.9858 37.8006C24.5619 35.9314 19.709 34.8956 15.9742 34.8956C12.4891 34.8956 10.1816 35.7885 9.14681 37.5625C6.95824 41.3128 11.2997 48.0633 19.7685 55.2425C12.7746 55.3258 7.33886 56.2664 3.96086 57.9212C1.73661 59.0047 0.404441 60.3976 0.107082 62.0406C-0.654158 66.291 5.76881 71.1723 16.2002 75.0655C5.72123 78.8872 -0.701736 83.7685 0.0595045 88.0308C0.80885 92.174 8.12389 94.6861 19.7209 94.8289C11.2521 102.008 6.89877 108.759 9.09923 112.509C10.134 114.283 12.4297 115.176 15.9266 115.176C19.6614 115.176 24.5381 114.128 29.962 112.259C28.7368 114.402 27.6901 116.474 26.8337 118.45C23.8245 125.403 23.5628 130.367 26.0844 132.463C26.917 133.153 28.0113 133.499 29.3316 133.499C33.2567 133.499 39.1444 130.391 45.5793 125.2C43.7713 136.07 44.8418 144.011 48.9692 145.488C49.4331 145.654 49.9088 145.738 50.4203 145.738C54.393 145.738 59.7098 140.44 64.7649 132.082C66.8345 142.904 70.6051 150.012 74.9941 150.012C79.3831 150.012 83.1536 142.904 85.2233 132.082C90.2665 140.44 95.5951 145.738 99.5679 145.738C100.079 145.738 100.567 145.654 101.019 145.488C105.146 144.011 106.217 136.07 104.409 125.2C110.832 130.391 116.72 133.499 120.657 133.499C121.989 133.499 123.083 133.153 123.904 132.463C125.89 130.82 126.14 127.391 124.701 122.617C124.665 122.474 124.617 122.343 124.582 122.2C124.546 122.093 124.498 121.974 124.463 121.855C123.523 118.998 122.036 115.747 120.05 112.259C125.462 114.128 130.327 115.176 134.062 115.176C137.547 115.176 139.854 114.283 140.889 112.509C143.077 108.759 138.736 102.008 130.267 94.8289C141.864 94.6861 149.191 92.174 149.929 88.0308C150.69 83.7685 144.255 78.8872 133.812 74.994L133.836 75.0417Z" fill="#97CBDC"/>
</g>
<defs>
<clipPath id="clip0_4040_219">
<rect width="150" height="150" fill="white"/>
</clipPath>
</defs>
</svg>
