<svg width="99" height="99" viewBox="0 0 99 99" fill="none" xmlns="http://www.w3.org/2000/svg">
<g clip-path="url(#clip0_4037_106)">
<path d="M148.87 36.8403C148.228 40.4358 140.544 42.7575 129.28 42.7575H128.995C124.784 39.3286 119.669 35.8402 113.912 32.5662C112.259 31.6256 110.606 30.7327 108.953 29.8993C110.808 29.6612 112.664 29.3874 114.531 29.0659C120.894 27.9587 126.913 26.4109 132.182 24.5774C142.697 28.3039 149.548 33.0186 148.858 36.8284L148.87 36.8403ZM139.961 60.9732C138.926 62.7352 136.191 63.1043 134.073 63.1043C130.184 63.1043 124.998 61.9256 119.229 59.8302C116.993 56.0799 114.21 52.1034 110.975 48.0555C110.868 47.9245 110.749 47.7817 110.642 47.6507C110.368 47.3054 110.094 46.9721 109.809 46.6268C109.405 46.1387 109 45.6505 108.584 45.1743C107.359 43.7337 106.11 42.3408 104.861 41.0073C106.657 41.4002 108.489 41.7693 110.38 42.0907C116.648 43.1742 122.893 43.7694 128.519 43.8171C137.107 50.8652 141.912 57.6158 139.949 60.9613L139.961 60.9732ZM100.662 93.4758C100.329 93.5948 99.9604 93.6544 99.5798 93.6544C95.8211 93.6544 90.5281 88.0349 85.5206 79.427C86.4246 74.129 86.9241 68.0333 86.9241 61.497C86.9241 59.6278 86.8765 57.7706 86.7933 55.949C87.9114 57.3896 89.077 58.8302 90.314 60.2827C93.359 63.8544 96.4991 67.1403 99.6035 70.0096C100.781 71.093 101.935 72.1288 103.089 73.0932C105.063 83.9393 104.349 92.1542 100.662 93.4758ZM75.006 97.9404C71.0689 97.9404 67.5482 90.4636 65.6451 79.5937C68.357 74.891 70.9619 69.331 73.198 63.2591C73.8522 61.4851 74.4469 59.735 75.006 58.0087C75.5531 59.735 76.1597 61.4851 76.8139 63.2591C79.05 69.3191 81.6549 74.8791 84.3668 79.5937C82.4637 90.4636 78.943 97.9404 75.006 97.9404ZM50.4322 93.6663C50.0516 93.6663 49.6828 93.6067 49.3498 93.4877C45.6506 92.1661 44.937 83.9512 46.9233 73.1051C51.1221 69.581 55.4992 65.2116 59.686 60.2946C60.923 58.854 62.0887 57.4015 63.2067 55.9609C63.1235 57.7706 63.0759 59.6159 63.0759 61.5089C63.0759 68.0452 63.5874 74.1409 64.4794 79.4389C59.4838 88.0468 54.1789 93.6663 50.4322 93.6663ZM29.3434 81.4391C28.273 81.4391 27.4166 81.1772 26.7862 80.6533C24.6809 78.9151 25.0615 74.26 27.8329 67.8785C28.8201 65.6045 30.069 63.1877 31.5439 60.6994C36.7417 58.7825 42.3916 56.1514 48.0176 52.9487C49.6709 52.0082 51.2767 51.0438 52.8348 50.0676C52.1212 51.7463 51.4432 53.4607 50.789 55.2346C48.5172 61.4018 46.8758 67.3189 45.8766 72.617C39.2871 78.1174 33.2686 81.4391 29.3553 81.4391H29.3434ZM15.9266 63.1162C13.8094 63.1162 11.0737 62.7471 10.0389 60.9851C8.0763 57.6277 12.8816 50.8891 21.4694 43.8409C27.0835 43.7933 33.3281 43.198 39.6083 42.1145C41.4995 41.7812 43.3431 41.4121 45.1392 41.0311C43.8903 42.3646 42.6414 43.7575 41.4162 45.1981C37.2532 50.0914 33.6373 55.1037 30.7946 59.8541C25.0139 61.9614 19.8279 63.14 15.9266 63.14V63.1162ZM20.72 42.7694C9.46794 42.7694 1.78417 40.4478 1.12998 36.8522C0.452004 33.0424 7.29127 28.3277 17.794 24.6013C22.9324 26.399 28.9271 27.9468 35.4572 29.0778C37.3246 29.3993 39.192 29.685 41.0356 29.9231C39.3823 30.7565 37.7409 31.6494 36.0757 32.59C30.3188 35.8641 25.2161 39.3524 21.0055 42.7813H20.7081L20.72 42.7694ZM10.0389 -12.9613C11.0737 -14.7233 13.8094 -15.0924 15.9266 -15.0924C19.816 -15.0924 25.002 -13.9137 30.7708 -11.8183C33.5422 -7.18699 37.1343 -2.18658 41.4043 2.83762C42.6295 4.27821 43.8784 5.67118 45.1273 7.00462C43.3312 6.61173 41.4876 6.24266 39.5964 5.9212C36.3254 5.34973 33.0545 4.92112 29.8787 4.62348C26.9765 4.36155 24.1456 4.21869 21.4575 4.19487C12.8697 -2.85331 8.06441 -9.59194 10.027 -12.9493L10.0389 -12.9613ZM26.7862 -32.6295C27.4166 -33.1533 28.273 -33.4153 29.3434 -33.4153C33.2567 -33.4153 39.2871 -30.0817 45.8766 -24.5931C46.8758 -19.2951 48.5053 -13.378 50.789 -7.2227C51.4432 -5.44875 52.1331 -3.72242 52.8348 -2.04372C51.2886 -3.01999 49.6828 -3.98435 48.0176 -4.9249C42.4035 -8.12753 36.7655 -10.7468 31.5677 -12.6636C25.9417 -22.1882 23.765 -30.1412 26.7743 -32.6295H26.7862ZM49.3498 -45.4638C49.6828 -45.5829 50.0516 -45.6424 50.4322 -45.6424C54.1789 -45.6424 59.4838 -40.0229 64.4794 -31.427C63.5755 -26.129 63.0759 -20.0332 63.0759 -13.4851C63.0759 -12.8541 63.0759 -12.2231 63.0878 -11.5921C63.0878 -11.1516 63.0997 -10.7111 63.1235 -10.2706C63.1235 -10.1039 63.1235 -9.9253 63.1354 -9.75862C63.1473 -9.13952 63.1829 -8.53233 63.2067 -7.93705C62.0887 -9.37764 60.923 -10.8182 59.686 -12.2707C55.4992 -17.1878 51.1221 -21.5572 46.9233 -25.0813C44.937 -35.9274 45.6506 -44.1304 49.3498 -45.4638ZM99.5798 -45.6424C99.9604 -45.6424 100.317 -45.5829 100.662 -45.4638C103.231 -44.5471 104.492 -40.0348 104.112 -33.1057C103.981 -30.6293 103.636 -27.9386 103.124 -25.1051C98.9256 -21.5691 94.5246 -17.1997 90.3259 -12.2707C89.1008 -10.8301 87.9352 -9.38954 86.8052 -7.93705C86.8885 -9.74671 86.936 -11.5921 86.936 -13.4851C86.936 -14.1399 86.936 -14.7828 86.9241 -15.4376C86.9241 -15.5091 86.9241 -15.5805 86.9241 -15.6519C86.9241 -16.1877 86.9003 -16.7235 86.8885 -17.2592C86.8766 -17.7235 86.8528 -18.164 86.8409 -18.6165C86.8409 -18.7593 86.8409 -18.9022 86.829 -19.0332C86.6268 -23.4859 86.1867 -27.6529 85.5444 -31.427C90.5519 -40.0348 95.8449 -45.6424 99.6035 -45.6424H99.5798ZM120.668 -33.4153C121.727 -33.4153 122.595 -33.1414 123.226 -32.6295C126.235 -30.1412 124.07 -22.1882 118.444 -12.6636C113.246 -10.7468 107.62 -8.12753 102.006 -4.9249C100.341 -3.98435 98.7352 -3.01999 97.189 -2.04372C97.9026 -3.72242 98.5806 -5.44875 99.2348 -7.2227C101.447 -13.2232 103.112 -19.1641 104.123 -24.5812C110.713 -30.0936 116.755 -33.4272 120.668 -33.4272V-33.4153ZM134.085 -15.0924C136.203 -15.0924 138.938 -14.7233 139.973 -12.9613C141.341 -10.6158 139.366 -6.3774 134.561 -1.30556C132.848 0.504105 130.838 2.34949 128.59 4.18296C122.964 4.23059 116.696 4.82587 110.416 5.90929C108.524 6.23075 106.681 6.59982 104.897 6.99271C106.145 5.65927 107.382 4.2663 108.619 2.82571C112.89 -2.18659 116.482 -7.18698 119.253 -11.8302C125.022 -13.9256 130.208 -15.1043 134.097 -15.1043L134.085 -15.0924ZM95.1194 24.006C98.9375 22.7321 103.041 21.0295 107.24 18.9699C109.583 19.2437 111.974 19.577 114.364 19.9937C120.216 21.0057 125.724 22.4106 130.553 24.0179C125.664 25.649 120.157 27.0181 114.364 28.0182C111.974 28.4349 109.595 28.7683 107.24 29.0421C103.029 26.9824 98.9256 25.2799 95.1075 24.006H95.1194ZM95.6665 29.7445C94.5603 29.7445 93.4898 29.7207 92.455 29.6731C90.6233 28.292 88.8391 27.1014 87.162 26.1133C89.1008 25.7561 91.1823 25.2323 93.3947 24.5536C97.07 25.7085 101.078 27.2919 105.206 29.2445C101.887 29.5659 98.6758 29.7326 95.6665 29.7326V29.7445ZM93.9061 30.7922C94.4889 30.8041 95.0599 30.816 95.6665 30.816C99.2348 30.816 103.089 30.5898 107.049 30.1493C109.143 31.1851 111.272 32.3042 113.377 33.5186C118.527 36.4474 123.214 39.6143 127.187 42.7575C121.989 42.6384 116.303 42.055 110.594 41.0668C108.179 40.6501 105.824 40.162 103.541 39.6263C100.293 36.2689 97.0225 33.2924 93.8942 30.816L93.9061 30.7922ZM117.552 59.2111C112.783 57.3658 107.656 54.9251 102.541 52.0201C100.412 50.8176 98.3665 49.5556 96.4158 48.2817C94.5246 44.0195 92.4907 40.1382 90.4092 36.7689C94.1202 38.1857 98.3665 39.4834 103.005 40.5787C104.611 42.2574 106.205 44.0195 107.775 45.8648C111.593 50.3533 114.9 54.9132 117.552 59.1992V59.2111ZM91.1585 59.604C89.5885 57.7587 88.1017 55.8895 86.6981 54.0322C86.4127 49.4604 85.8536 45.1148 85.0686 41.2097C88.0541 43.7933 91.5867 46.4363 95.5357 49.008C96.4753 51.1272 97.3555 53.3297 98.2 55.5918C100.234 61.1041 101.768 66.5093 102.767 71.4383C102.446 71.1645 102.137 70.8787 101.804 70.593C98.2833 67.438 94.6555 63.7234 91.1466 59.604H91.1585ZM72.4011 41.936C73.4597 39.912 74.3399 37.9952 75.0179 36.1974C75.6958 37.9952 76.576 39.912 77.6346 41.936C77.1232 45.6863 76.2549 49.8414 75.0179 54.2108C73.7927 49.8414 72.9126 45.6744 72.4011 41.936ZM66.3469 39.9596C67.4649 38.9476 68.4997 37.9237 69.4513 36.9237C69.9271 36.4236 70.3671 35.9355 70.7835 35.4593C70.7953 37.3761 70.9619 39.4834 71.2473 41.7336C69.4632 45.0791 67.2032 48.6984 64.527 52.3892C64.8839 47.865 65.5143 43.6504 66.335 39.9596H66.3469ZM64.9433 41.1978C64.1702 45.0434 63.6111 49.3651 63.3257 54.0441C61.934 55.8895 60.4472 57.7587 58.8653 59.604C55.0472 64.0925 51.0745 68.1166 47.2564 71.4383C48.2555 66.5093 49.778 61.1041 51.8119 55.5918C52.6564 53.3178 53.5366 51.1153 54.4763 49.008C58.3538 46.472 61.8984 43.829 64.9314 41.2097L64.9433 41.1978ZM61.3274 36.0903C63.4565 35.2211 65.3834 34.2925 67.0724 33.3519C66.4182 35.1616 65.8354 37.2094 65.3239 39.4358C62.4455 42.0193 59.0556 44.6386 55.3208 47.1626C57.2239 43.0432 59.2697 39.2929 61.3274 36.0903ZM59.6265 36.757C57.545 40.1263 55.4992 44.0195 53.6199 48.2817C51.6573 49.5556 49.6115 50.8057 47.4943 52.0082C42.3678 54.9251 37.2294 57.3658 32.4479 59.2111C35.1479 54.8537 38.4783 50.3057 42.2607 45.8648C43.8427 44.0195 45.4365 42.2574 47.0304 40.5787C51.6692 39.4834 55.9155 38.1857 59.6265 36.757ZM57.9137 30.7327C58.1873 30.7208 58.449 30.7089 58.7226 30.697C59.5908 30.6494 60.4354 30.5779 61.2442 30.5065C62.3385 30.3993 63.3852 30.2684 64.3724 30.1017C63.1354 31.578 61.8865 33.2805 60.6494 35.1854C57.0811 36.626 52.9538 37.9714 48.4696 39.1262C51.6811 35.8879 54.8926 33.0543 57.9256 30.7446L57.9137 30.7327ZM54.3692 30.816C54.9639 30.816 55.5468 30.816 56.1296 30.7922C53.0014 33.2686 49.7423 36.245 46.4951 39.6024C44.2114 40.1382 41.8563 40.6263 39.4418 41.043C33.7325 42.0312 28.0351 42.6146 22.8372 42.7456C26.8218 39.6024 31.4963 36.4355 36.6466 33.5067C38.7638 32.3043 40.881 31.1732 42.9744 30.1374C46.9352 30.5779 50.789 30.8041 54.3573 30.8041L54.3692 30.816ZM19.5187 24.0179C24.3359 22.4106 29.8311 21.0176 35.6713 20.0057C38.062 19.589 40.4409 19.2437 42.7841 18.9818C46.9947 21.0414 51.0983 22.7321 54.9164 24.0179C51.0983 25.2918 46.9947 26.9943 42.7841 29.054C40.4409 28.7802 38.062 28.4468 35.6713 28.0301C29.8311 27.0181 24.3359 25.6251 19.5187 24.0179ZM20.7438 5.25448C20.839 5.25448 20.946 5.25448 21.0412 5.25448C25.2518 8.68332 30.3664 12.1598 36.1113 15.4339C37.7647 16.3744 39.418 17.2554 41.0713 18.1007C39.2277 18.3389 37.3603 18.6127 35.4928 18.9341C28.9628 20.0652 22.9681 21.6248 17.8297 23.4107C7.29127 19.6842 0.440109 14.9814 1.12998 11.1597C1.2965 10.2192 1.9507 9.37386 3.00929 8.6238C6.01857 6.50458 12.394 5.23067 20.72 5.23067L20.7438 5.25448ZM39.4418 6.98081C41.8563 7.39751 44.2114 7.88564 46.4951 8.4214C49.7423 11.7907 53.0014 14.7552 56.1296 17.2316C55.5587 17.2197 54.9758 17.2078 54.3692 17.2078C50.789 17.2078 46.9471 17.434 42.9863 17.8745C40.8929 16.8387 38.7757 15.7196 36.6585 14.5052C31.5082 11.5764 26.8218 8.40949 22.8491 5.26638C25.0972 5.31401 27.4285 5.45688 29.8192 5.68309C32.9593 5.96882 36.2065 6.40933 39.4418 6.9689V6.98081ZM59.6265 11.2669C55.9155 9.83818 51.6692 8.54045 47.0304 7.44513C45.4246 5.77833 43.8308 4.00438 42.2607 2.159C38.4426 -2.32945 35.136 -6.88934 32.4836 -11.1754C37.2532 -9.33001 42.3797 -6.88934 47.4943 -3.98435C49.6234 -2.76997 51.6692 -1.51987 53.6199 -0.257862C55.5111 4.00438 57.545 7.89754 59.6265 11.2669ZM65.3358 8.6357C65.8473 10.8502 66.4301 12.8741 67.0724 14.6838C65.3715 13.7432 63.4565 12.8265 61.3274 11.9455C59.2697 8.75476 57.2358 5.00446 55.3327 0.885086C59.127 3.45672 62.505 6.08788 65.3358 8.6357ZM64.9433 6.81413C61.9578 4.2425 58.4371 1.59943 54.4763 -0.972202C53.5485 -3.09142 52.6564 -5.29398 51.8119 -7.55606C49.778 -13.0684 48.2436 -18.4736 47.2564 -23.4026C51.0745 -20.0809 55.0472 -16.0567 58.8653 -11.5683C60.4354 -9.7229 61.9221 -7.8537 63.3257 -6.00832C63.6111 -1.34128 64.1702 2.98049 64.9433 6.81413ZM65.3834 -29.8554C67.8218 -25.4384 70.1768 -20.3428 72.1989 -14.8662C73.0434 -12.5922 73.7808 -10.342 74.4469 -8.13944C73.1029 -3.6629 72.1275 0.587444 71.5209 4.4568C69.6059 1.02796 67.2151 -2.639 64.3962 -6.3893C64.2534 -8.6871 64.1821 -11.0563 64.1821 -13.4732C64.1821 -19.3189 64.6222 -24.9027 65.3834 -29.8554ZM85.1043 6.81413C85.8774 2.98049 86.4365 -1.35319 86.7219 -6.02023C88.1136 -7.87752 89.6123 -9.73481 91.1704 -11.5683C95.0004 -16.0686 98.985 -20.0928 102.815 -23.4264C101.804 -18.426 100.246 -13.0208 98.2238 -7.55606C97.3912 -5.29398 96.4991 -3.09142 95.5594 -0.972202C91.6105 1.59943 88.0898 4.2425 85.1043 6.81413ZM88.7202 11.9455C86.5911 12.8265 84.6642 13.7432 82.9633 14.6838C83.0704 14.3743 83.1893 14.0647 83.2844 13.7432C83.8078 12.1836 84.2836 10.4692 84.6999 8.6357C87.5307 6.08788 90.9206 3.45672 94.7031 0.885086C92.8 4.99256 90.7541 8.74285 88.7083 11.9336L88.7202 11.9455ZM90.4092 11.2788C92.4907 7.90945 94.5246 4.02819 96.4158 -0.234051C98.3665 -1.50796 100.412 -2.75806 102.541 -3.97244C107.656 -6.87743 112.783 -9.31811 117.552 -11.1635C114.9 -6.87744 111.593 -2.31755 107.775 2.1709C106.205 4.01628 104.599 5.79023 103.005 7.45704C98.3665 8.55236 94.1202 9.85009 90.4092 11.2788ZM92.1339 17.3031C89.7669 17.4102 87.6021 17.6245 85.6752 17.9341C86.9122 16.4578 88.1611 14.7552 89.3982 12.8503C92.9665 11.3978 97.0938 10.0525 101.578 8.90953C98.3665 12.1479 95.155 14.9814 92.122 17.2912L92.1339 17.3031ZM95.6665 17.2197C95.0718 17.2197 94.4889 17.2197 93.9061 17.2435C97.0343 14.7671 100.293 11.8026 103.552 8.4333C105.824 7.89754 108.179 7.40941 110.606 6.99271C116.327 5.99263 122.024 5.42116 127.246 5.2902C123.202 8.46902 118.492 11.624 113.389 14.529C111.272 15.7315 109.155 16.8625 107.061 17.8983C103.1 17.4578 99.2586 17.2316 95.6784 17.2316L95.6665 17.2197ZM87.162 21.9106C88.8391 20.9343 90.6233 19.7318 92.455 18.3508C93.4898 18.315 94.5603 18.2912 95.6546 18.2912C98.6639 18.2912 101.887 18.4579 105.206 18.7794C101.067 20.7319 97.07 22.3154 93.3947 23.4821C91.1942 22.8035 89.1008 22.2796 87.162 21.9225V21.9106ZM82.88 24.0298C83.7721 23.6845 84.6999 23.2559 85.6633 22.744C87.4713 23.0059 89.4338 23.4464 91.5272 24.0298C89.4338 24.6132 87.4713 25.0418 85.6633 25.3156C84.6999 24.8036 83.7602 24.375 82.88 24.0298ZM85.6752 30.1136C87.6021 30.4351 89.7669 30.6494 92.1339 30.7446C95.1669 33.0543 98.3665 35.8879 101.59 39.1262C97.1057 37.9833 92.9784 36.6379 89.41 35.1854C88.173 33.2805 86.9241 31.578 85.6871 30.1017L85.6752 30.1136ZM82.3448 31.7685C81.9285 30.7565 81.4884 29.8517 81.0483 29.0183C81.9523 29.3159 82.9395 29.5778 84.0219 29.8041C85.1994 31.1256 86.4008 32.6733 87.6021 34.4235C85.6395 33.5543 83.8792 32.6614 82.3567 31.7566L82.3448 31.7685ZM83.5818 35.233C83.3796 34.5782 83.1655 33.9591 82.9633 33.3639C84.6523 34.3044 86.5911 35.233 88.7202 36.1141C90.7779 39.3167 92.8118 43.0551 94.7149 47.1745C90.9206 44.6028 87.5307 41.9717 84.6999 39.4239C84.3668 37.9475 83.9862 36.5665 83.5937 35.245L83.5818 35.233ZM79.2166 33.7686C79.169 32.6733 79.0738 31.6613 78.9311 30.7327C79.6805 31.3161 80.5249 31.9114 81.4646 32.4947C81.8452 33.4353 82.2021 34.4473 82.5351 35.5426C82.7849 36.3522 83.0228 37.1975 83.2488 38.0666C81.6906 36.5903 80.3346 35.1378 79.2166 33.7686ZM78.7765 41.7574C79.062 39.5072 79.2166 37.3999 79.2404 35.4831C80.5131 36.9475 82.0117 38.4714 83.7126 40.0191C84.5571 43.7694 85.1519 47.9722 85.5087 52.4368C82.8325 48.7341 80.5606 45.1148 78.7884 41.7574H78.7765ZM72.3654 29.6255C72.7104 29.2921 73.0196 28.9706 73.3051 28.6492C73.3051 29.0659 73.3288 29.5064 73.3764 29.9707C73.0077 30.6851 72.5319 31.4351 71.9848 32.2209C72.0681 31.2804 72.187 30.4112 72.3654 29.6374V29.6255ZM70.5694 28.4111C70.9976 28.2206 71.4139 28.0182 71.7826 27.8158C71.6399 28.2087 71.509 28.6373 71.402 29.0897C70.7953 29.6255 70.1055 30.1731 69.3086 30.7208C69.713 29.8636 70.1293 29.1016 70.5694 28.423V28.4111ZM68.9755 29.0183C68.5116 29.8398 68.0834 30.7684 67.6671 31.7685C66.1447 32.6733 64.3724 33.5663 62.4098 34.4354C63.6111 32.6852 64.8125 31.1375 65.99 29.8159C67.0724 29.5897 68.0715 29.3278 68.9755 29.0183ZM64.3486 22.744C65.312 23.2559 66.2517 23.6845 67.1319 24.0298C66.2398 24.375 65.312 24.8036 64.3486 25.3156C62.5407 25.0537 60.5781 24.6251 58.4847 24.0298C60.5781 23.4464 62.5407 23.0059 64.3486 22.744ZM62.8499 21.9106C60.9111 22.2677 58.8296 22.7916 56.6292 23.4702C52.9538 22.3154 48.9454 20.72 44.8061 18.7675C48.1247 18.446 51.3362 18.2793 54.3573 18.2793C55.4635 18.2793 56.534 18.3031 57.5569 18.3389C59.3886 19.7199 61.1728 20.9105 62.8499 21.8987V21.9106ZM65.4905 19.2556C66.216 20.0533 66.9416 20.7557 67.6433 21.3748C66.6561 21.3986 65.6094 21.4939 64.4913 21.6486C62.9094 20.7914 61.2204 19.7318 59.46 18.4698C61.6843 18.6246 63.7063 18.8865 65.4905 19.2556ZM60.6138 12.8622C61.8508 14.7671 63.1116 16.4697 64.3367 17.946C62.4098 17.6245 60.245 17.4221 57.8899 17.315C54.8569 15.0053 51.6454 12.1717 48.4339 8.93334C52.9181 10.0763 57.0455 11.4216 60.6138 12.8741V12.8622ZM70.7716 12.5765C69.5108 11.124 68.024 9.61197 66.3231 8.06423C65.5023 4.37346 64.8839 0.170742 64.5151 -4.35342C67.1795 -0.662655 69.4513 2.95668 71.2354 6.30219C70.9381 8.56427 70.7835 10.6597 70.7716 12.5765ZM74.435 13.4694C74.0901 14.5171 73.8284 15.4934 73.6381 16.4101C73.1385 15.6005 72.5557 14.779 71.8777 13.9218C71.8421 12.1717 71.9372 10.2192 72.1632 8.11185C73.1029 10.0168 73.876 11.8264 74.4469 13.4813L74.435 13.4694ZM77.6227 6.1236C76.921 7.45704 76.3024 8.76666 75.7553 10.0287C75.4817 10.6597 75.2439 11.2669 75.0179 11.8502C74.3399 10.0525 73.4597 8.13566 72.4011 6.09978C72.9126 2.34949 73.7808 -1.8056 75.0179 -6.175C76.2549 -1.8056 77.1232 2.36139 77.6346 6.11169L77.6227 6.1236ZM78.5148 4.49252C77.9082 0.623161 76.9329 -3.63908 75.5769 -8.12754C76.243 -10.3301 76.9923 -12.5922 77.8249 -14.8543C79.847 -20.3309 82.1902 -25.4265 84.6404 -29.8435C85.4135 -24.8908 85.8417 -19.307 85.8417 -13.4613C85.8417 -11.0444 85.7704 -8.6752 85.6158 -6.3774C82.8563 -2.68663 80.4417 0.992233 78.491 4.48061L78.5148 4.49252ZM83.6889 8.07613C81.9999 9.61197 80.5012 11.124 79.2523 12.5884C79.2285 10.6716 79.0738 8.55236 78.7765 6.29028C80.5844 2.88524 82.8562 -0.710278 85.4968 -4.35342C85.14 0.182648 84.5096 4.39727 83.6889 8.08804V8.07613ZM81.4646 15.5886C80.5249 16.1601 79.6805 16.7554 78.9311 17.3388C79.0738 16.3982 79.169 15.3862 79.2166 14.3028C80.3227 12.9337 81.6787 11.505 83.2131 10.0287C83.1536 10.2668 83.0941 10.5049 83.0347 10.7311C82.5589 12.5051 82.0355 14.1361 81.4646 15.5767V15.5886ZM81.0364 19.0532C81.5003 18.2317 81.9285 17.315 82.3448 16.303C83.8673 15.3981 85.6276 14.4933 87.5902 13.6361C86.3889 15.3862 85.1875 16.9459 84.0219 18.2555C82.9395 18.4817 81.9404 18.7436 81.0364 19.0532ZM80.7153 21.4105C80.2395 21.4462 79.7756 21.4939 79.3593 21.5653C79.621 21.2558 79.8827 20.9105 80.1324 20.5533C80.8818 20.2438 81.7382 19.9699 82.6659 19.708C81.9999 20.3628 81.3457 20.9343 80.7153 21.4105ZM82.3686 21.3986C83.0822 20.7795 83.7959 20.0652 84.5215 19.2794C86.3056 18.9103 88.3277 18.6484 90.5519 18.4936C88.7915 19.7437 87.1025 20.8152 85.5206 21.6725C84.4025 21.5177 83.3439 21.4224 82.3686 21.3986ZM81.0483 23.4345C80.6677 23.3273 80.299 23.244 79.9421 23.1845C80.3109 22.9821 80.6677 22.744 81.0364 22.4701C81.31 22.4582 81.5835 22.4582 81.8452 22.4582C82.4518 22.4582 83.106 22.4939 83.7721 22.5535C82.9038 22.9464 82.0712 23.2678 81.2862 23.5059C81.2148 23.4821 81.1316 23.4583 81.0602 23.4345H81.0483ZM82.3686 26.7086C83.3558 26.6847 84.4025 26.5895 85.5206 26.4347C87.1025 27.28 88.7915 28.3515 90.5519 29.6136C88.3277 29.4588 86.3056 29.185 84.5215 28.8278C83.7959 28.0301 83.0704 27.3158 82.3686 26.7086ZM79.3712 26.5419C79.7994 26.6133 80.2395 26.649 80.7153 26.6848C81.3457 27.161 81.9999 27.7325 82.6659 28.3873C81.7382 28.1373 80.8937 27.8634 80.1443 27.5539C79.8945 27.1848 79.6329 26.8514 79.3712 26.5419ZM78.2293 27.8396C78.5981 28.042 79.0025 28.2444 79.4307 28.4349C79.8708 29.1016 80.2871 29.8755 80.7034 30.7327C79.9183 30.1969 79.2166 29.6493 78.6218 29.1135C78.5148 28.6611 78.384 28.2444 78.2412 27.8396H78.2293ZM76.6474 30.0184C76.695 29.554 76.7188 29.1016 76.7307 28.673C77.0161 28.9945 77.3135 29.3278 77.6703 29.6493C77.8487 30.4351 77.9677 31.3042 78.0509 32.2447C77.4919 31.4708 77.028 30.7208 76.6593 30.0064L76.6474 30.0184ZM69.3204 26.6848C69.7962 26.649 70.2601 26.6014 70.6764 26.53C70.4147 26.8395 70.1649 27.1848 69.9152 27.542C69.1658 27.8515 68.3094 28.1373 67.3817 28.3873C68.0478 27.7325 68.7019 27.161 69.3323 26.6848H69.3204ZM67.6671 26.7086C66.9535 27.3158 66.2398 28.0301 65.5143 28.8278C63.7301 29.185 61.708 29.4469 59.4838 29.6136C61.2442 28.3515 62.9332 27.28 64.5151 26.4347C65.6332 26.5895 66.6918 26.6847 67.6671 26.7086ZM70.0936 24.9227C69.7368 25.137 69.368 25.3632 68.9993 25.6371C68.7257 25.649 68.4522 25.6609 68.1905 25.6609C67.5839 25.6609 66.9297 25.6251 66.2636 25.5656C67.1319 25.1727 67.9764 24.8513 68.7495 24.6013C69.2134 24.7441 69.6535 24.8394 70.0936 24.9227ZM68.9993 22.4701C69.368 22.744 69.7368 22.9821 70.0936 23.1845C69.6654 23.2678 69.2134 23.375 68.7495 23.5059C67.9645 23.2678 67.1319 22.9464 66.2636 22.5535C66.9297 22.4939 67.5839 22.4582 68.1905 22.4582C68.4522 22.4582 68.7257 22.4582 68.9993 22.4701ZM69.9033 20.5533C70.1531 20.9224 70.4147 21.2558 70.6764 21.5653C70.2482 21.4939 69.8081 21.4462 69.3323 21.4105C68.7019 20.9343 68.0478 20.3628 67.3817 19.708C68.3094 19.958 69.1539 20.2319 69.9033 20.5533ZM67.6909 16.3149C67.6909 16.3149 67.7028 16.3625 67.7147 16.3863C67.7504 16.4577 67.7742 16.5292 67.8099 16.6006C67.8931 16.7911 67.9645 16.9578 68.0478 17.1364C68.357 17.8269 68.6782 18.4698 68.9993 19.0532C68.0953 18.7556 67.0962 18.4936 66.0138 18.2555C64.8482 16.934 63.6468 15.3862 62.4455 13.6361C64.4081 14.5052 66.1803 15.3981 67.7028 16.303L67.6909 16.3149ZM73.3051 19.4223C73.0315 19.1008 72.7222 18.7675 72.3773 18.446C72.1989 17.6602 72.0681 16.7911 71.9848 15.8506C72.5438 16.6244 72.9958 17.3626 73.3764 18.0769C73.3288 18.5532 73.3051 18.9937 73.2932 19.4223H73.3051ZM75.5531 17.8983C75.339 18.315 75.1606 18.7317 75.0179 19.1365C74.8751 18.7436 74.6967 18.3389 74.4945 17.9221C74.6016 17.1245 74.78 16.2673 75.0298 15.3386C75.2795 16.2554 75.4579 17.1126 75.565 17.9102L75.5531 17.8983ZM77.6584 18.446C77.3135 18.7794 77.0042 19.1008 76.7188 19.4342C76.7188 19.0056 76.695 18.5651 76.6355 18.0888C77.0161 17.3745 77.48 16.6244 78.0271 15.8506C77.9439 16.7911 77.813 17.6602 77.6465 18.446H77.6584ZM79.4545 19.6604C79.0144 19.8509 78.61 20.0533 78.2293 20.2676C78.3721 19.8747 78.5029 19.4461 78.61 18.9937C79.2166 18.4579 79.9064 17.9102 80.7034 17.3745C80.299 18.2317 79.8827 18.9937 79.4545 19.6723V19.6604ZM71.4258 18.9937C71.5328 19.4461 71.6636 19.8628 71.8064 20.2676C71.4376 20.0533 71.0332 19.8628 70.605 19.6723C70.1649 19.0056 69.7486 18.2317 69.3323 17.3745C70.1174 17.9102 70.8191 18.4579 71.4139 18.9937H71.4258ZM81.0483 25.6251C80.6796 25.3513 80.3109 25.1251 79.954 24.9108C80.3822 24.8275 80.8342 24.7322 81.2981 24.5893C82.0831 24.8275 82.9157 25.1489 83.784 25.5537C83.1179 25.6132 82.4637 25.649 81.8571 25.649C81.5954 25.649 81.3338 25.649 81.0483 25.6251ZM78.158 13.9218C77.48 14.779 76.8853 15.6244 76.3857 16.422C76.1954 15.4934 75.9337 14.5052 75.5888 13.4694C75.9218 12.517 76.3025 11.5169 76.7663 10.4573C77.0994 9.6834 77.48 8.88572 77.8725 8.07613C78.0985 10.1953 78.1937 12.1717 78.158 13.9337V13.9218ZM70.8191 14.3028C70.8548 15.3862 70.95 16.3982 71.0927 17.3388C70.3434 16.7554 69.4989 16.1601 68.5711 15.5886C67.9288 13.9576 67.3341 12.0884 66.8107 10.0287C68.3451 11.505 69.7011 12.9337 70.8191 14.3028ZM74.9465 32.4947C74.7324 31.6852 74.5778 30.9232 74.4826 30.2088C74.6967 29.7921 74.8751 29.3754 75.0179 28.9706C75.1725 29.3754 75.339 29.7802 75.5531 30.1969C75.4461 30.9946 75.2676 31.8518 75.0179 32.7686C74.9941 32.6733 74.9703 32.59 74.9465 32.4947ZM77.8725 39.9715C76.9329 38.0666 76.1716 36.2689 75.5888 34.6021C75.9337 33.5663 76.1954 32.5781 76.3857 31.6494C76.8853 32.459 77.48 33.2924 78.158 34.1615C78.1937 35.9117 78.0985 37.8642 77.8725 39.9715ZM44.818 29.2921C48.9573 27.3396 52.9538 25.7561 56.641 24.6013C58.8415 25.2799 60.9349 25.8037 62.8618 26.1609C61.1847 27.1491 59.4005 28.3396 57.5688 29.7088C56.534 29.7564 55.4754 29.7802 54.3692 29.7802C51.3599 29.7802 48.1366 29.6136 44.818 29.2921ZM68.6663 36.2331C68.0834 36.8522 67.453 37.4713 66.7988 38.1023C67.3222 36.0307 67.9169 34.1496 68.5592 32.5066C69.4989 31.9233 70.3315 31.3399 71.0808 30.7446C70.9381 31.6852 70.8429 32.6971 70.7953 33.7925C70.1649 34.5782 69.4513 35.3997 68.6544 36.2331H68.6663ZM71.8896 34.1734C72.5676 33.3162 73.1623 32.4709 73.6619 31.6732C73.8522 32.6019 74.1139 33.5782 74.4588 34.614C73.8879 36.2689 73.1148 38.0785 72.1751 39.9834C71.9491 37.8761 71.854 35.9236 71.8896 34.1734ZM80.8104 -44.059C80.858 -43.9518 80.9056 -43.8447 80.965 -43.7256C81.0245 -43.5946 81.084 -43.4637 81.1435 -43.3327C82.4637 -40.2372 83.5699 -36.2012 84.3906 -31.5461C81.6906 -26.8433 79.0857 -21.2833 76.8377 -15.2233C76.1835 -13.4494 75.5769 -11.6873 75.0298 -9.96101C74.4826 -11.6873 73.876 -13.4375 73.2218 -15.2233C70.9857 -21.2833 68.3808 -26.8433 65.6689 -31.5461C67.572 -42.4041 71.0927 -49.8928 75.0298 -49.8928C75.2082 -49.8928 75.3747 -49.8808 75.5531 -49.8451C77.3967 -49.5237 79.2285 -47.4878 80.8223 -44.059H80.8104ZM64.3962 54.4608C67.2151 50.7105 69.6178 47.0435 71.5209 43.6147C72.1275 47.4721 73.1029 51.7225 74.4588 56.2109C73.7927 58.4135 73.0434 60.6755 72.2108 62.9376C70.1887 68.4143 67.8455 73.5218 65.3953 77.9269C64.6341 72.9741 64.194 67.3904 64.194 61.5447C64.194 59.1278 64.2653 56.7586 64.4081 54.4608H64.3962ZM85.8655 61.5447C85.8655 67.3904 85.4254 72.9741 84.6642 77.9269C82.2258 73.5218 79.8708 68.4143 77.8487 62.9376C77.0042 60.6636 76.2668 58.4135 75.6007 56.2109C76.9447 51.7344 77.9201 47.484 78.5267 43.6147C80.4417 47.0435 82.8325 50.7105 85.6633 54.4727C85.7942 56.7824 85.8655 59.1397 85.8655 61.5447ZM123.749 72.1407C123.797 72.3074 123.844 72.4741 123.892 72.6289C123.951 72.8551 124.023 73.0932 124.082 73.3194C124.082 73.3432 124.082 73.367 124.094 73.3789C124.867 76.5935 124.724 78.9984 123.606 80.3081C123.499 80.439 123.368 80.5581 123.238 80.6771C122.607 81.201 121.751 81.4629 120.68 81.4629C116.767 81.4629 110.737 78.1293 104.147 72.6408C103.16 67.3427 101.519 61.4256 99.2348 55.2585C98.5806 53.4845 97.8907 51.7701 97.189 50.0914C98.7352 51.0557 100.341 52.032 102.006 52.9726C107.62 56.1633 113.246 58.7944 118.444 60.7113C120.871 64.8306 122.667 68.6524 123.666 71.8669C123.69 71.9502 123.725 72.0455 123.749 72.1407ZM129.304 5.2902C140.556 5.2902 148.24 7.61181 148.894 11.2192C149.37 13.8742 146.039 17.2078 139.759 20.339C137.523 21.4581 135.001 22.5059 132.265 23.4821C127.115 21.6844 121.097 20.1366 114.555 18.9937C112.687 18.6722 110.82 18.3865 108.976 18.1603C110.63 17.315 112.271 16.4339 113.936 15.4934C119.539 12.3027 124.677 8.81429 128.995 5.31401C129.102 5.31401 129.209 5.31401 129.316 5.31401L129.304 5.2902ZM133.836 24.0417C136.155 23.1845 138.308 22.2558 140.247 21.2915C147.086 17.8745 150.535 14.2314 149.952 11.0287C149.215 6.88556 141.876 4.36155 130.267 4.23059C132.147 2.63522 133.859 1.03986 135.346 -0.531693C140.58 -6.04404 142.566 -10.6277 140.913 -13.4494C139.878 -15.2233 137.582 -16.1163 134.085 -16.1163C130.362 -16.1163 125.486 -15.0805 120.074 -13.2113C125.545 -22.8073 127.282 -30.6293 123.928 -33.4034C123.095 -34.082 122.001 -34.4391 120.68 -34.4391C116.743 -34.4391 110.856 -31.3199 104.421 -26.1171C104.825 -28.5458 105.087 -30.8436 105.218 -33.0105C105.634 -40.5468 104.159 -45.3091 101.055 -46.4282C100.603 -46.5949 100.115 -46.6782 99.6035 -46.6782C95.6189 -46.6782 90.3021 -41.3802 85.2589 -33.0224C84.4858 -37.0346 83.4866 -40.5468 82.3091 -43.3565C82.2972 -43.4041 82.2734 -43.4518 82.2615 -43.4875C82.1664 -43.7018 82.0712 -43.9042 81.988 -44.1185C81.9047 -44.2852 81.8333 -44.4518 81.762 -44.6185C81.7501 -44.6542 81.7263 -44.6781 81.7144 -44.7138C79.7756 -48.7736 77.48 -50.9524 75.0416 -50.9524C70.6526 -50.9524 66.8821 -43.8447 64.8125 -33.0105C59.7574 -41.3683 54.4406 -46.6663 50.4679 -46.6663C49.9564 -46.6663 49.4687 -46.583 49.0167 -46.4163C44.8894 -44.94 43.8189 -36.9989 45.6269 -26.129C39.192 -31.3199 33.3043 -34.4272 29.3791 -34.4272C28.0589 -34.4272 26.9527 -34.082 26.132 -33.3914C22.7659 -30.6174 24.5143 -22.7954 29.9857 -13.1994C24.5619 -15.0686 19.709 -16.1044 15.9742 -16.1044C12.4891 -16.1044 10.1816 -15.2114 9.14679 -13.4375C6.95823 -9.68718 11.2997 -2.93665 19.7685 4.2425C12.7746 4.32584 7.33885 5.26639 3.96084 6.92128C1.7366 8.0047 0.404426 9.39767 0.107067 11.0407C-0.654173 15.291 5.76879 20.1723 16.2002 24.0655C5.72121 27.8872 -0.701751 32.7686 0.0594892 37.0308C0.808835 41.174 8.12388 43.6861 19.7209 43.829C11.2521 51.0081 6.89876 57.7587 9.09922 61.5089C10.134 63.2829 12.4296 64.1758 15.9266 64.1758C19.6614 64.1758 24.5381 63.1281 29.962 61.2589C28.7368 63.402 27.6901 65.4735 26.8337 67.4499C23.8245 74.4028 23.5628 79.3675 26.0844 81.4629C26.917 82.1534 28.0113 82.4987 29.3316 82.4987C33.2567 82.4987 39.1444 79.3913 45.5793 74.2004C43.7713 85.0703 44.8418 93.0114 48.9692 94.4877C49.433 94.6544 49.9088 94.7378 50.4203 94.7378C54.393 94.7378 59.7098 89.4397 64.7649 81.0819C66.8345 91.9042 70.605 99.0119 74.9941 99.0119C79.3831 99.0119 83.1536 91.9042 85.2232 81.0819C90.2664 89.4397 95.5951 94.7378 99.5678 94.7378C100.079 94.7378 100.567 94.6544 101.019 94.4877C105.146 93.0114 106.217 85.0703 104.409 74.2004C110.832 79.3913 116.72 82.4987 120.657 82.4987C121.989 82.4987 123.083 82.1534 123.904 81.4629C125.89 79.8199 126.14 76.3911 124.701 71.6169C124.665 71.474 124.617 71.3431 124.582 71.2002C124.546 71.093 124.498 70.974 124.463 70.8549C123.523 67.9976 122.036 64.7473 120.05 61.2589C125.462 63.1281 130.327 64.1758 134.062 64.1758C137.547 64.1758 139.854 63.2829 140.889 61.5089C143.077 57.7587 138.736 51.0081 130.267 43.829C141.864 43.6861 149.191 41.174 149.929 37.0308C150.69 32.7686 144.255 27.8872 133.812 23.9941L133.836 24.0417Z" fill="#97CBDC"/>
</g>
<defs>
<clipPath id="clip0_4037_106">
<rect width="150" height="150" fill="white" transform="translate(0 -51)"/>
</clipPath>
</defs>
</svg>
