<svg width="119" height="119" viewBox="0 0 119 119" fill="none" xmlns="http://www.w3.org/2000/svg">
<g clip-path="url(#clip0_4190_186)">
<path d="M0.896423 69.6867C1.40598 72.5391 7.50177 74.381 16.4379 74.381H16.6643C20.0048 71.6607 24.0623 68.8933 28.6294 66.2959C29.9411 65.5497 31.2527 64.8413 32.5643 64.1801C31.0923 63.9912 29.6202 63.774 28.1388 63.519C23.0904 62.6406 18.3157 61.4127 14.1354 59.9581C5.79382 62.9145 0.358566 66.6548 0.905869 69.6772L0.896423 69.6867ZM7.96415 88.8321C8.7851 90.23 10.9554 90.5228 12.6351 90.5228C15.7207 90.5228 19.8349 89.5877 24.4115 87.9254C26.1855 84.9501 28.3935 81.7954 30.9602 78.5841C31.0451 78.4802 31.1395 78.3668 31.2244 78.2629C31.4414 77.989 31.6585 77.7246 31.8849 77.4506C32.2058 77.0634 32.5266 76.6761 32.8569 76.2983C33.8288 75.1555 34.8196 74.0504 35.8104 72.9925C34.3855 73.3042 32.9324 73.597 31.432 73.852C26.4591 74.7115 21.5051 75.1838 17.0418 75.2216C10.2288 80.8131 6.41661 86.1686 7.97358 88.8227L7.96415 88.8321ZM39.1414 114.617C39.4056 114.712 39.6981 114.759 40.0001 114.759C42.9819 114.759 47.181 110.301 51.1537 103.472C50.4365 99.269 50.0402 94.4331 50.0402 89.2477C50.0402 87.7648 50.0779 86.2914 50.144 84.8462C49.257 85.9891 48.3322 87.132 47.3509 88.2843C44.9352 91.1178 42.444 93.7247 39.9812 96.001C39.047 96.8605 38.1317 97.6823 37.2164 98.4473C35.65 107.052 36.2162 113.569 39.1414 114.617ZM59.4953 118.159C62.6187 118.159 65.4118 112.228 66.9216 103.604C64.7701 99.8735 62.7036 95.4626 60.9296 90.6456C60.4106 89.2383 59.9388 87.8498 59.4953 86.4802C59.0612 87.8498 58.58 89.2383 58.061 90.6456C56.287 95.4532 54.2204 99.8641 52.069 103.604C53.5788 112.228 56.3719 118.159 59.4953 118.159ZM78.9905 114.769C79.2924 114.769 79.585 114.721 79.8492 114.627C82.7838 113.579 83.35 107.061 81.7742 98.4568C78.4432 95.661 74.9706 92.1946 71.6491 88.2937C70.6677 87.1509 69.743 85.9985 68.856 84.8557C68.922 86.2913 68.9598 87.7554 68.9598 89.2571C68.9598 94.4426 68.554 99.2785 67.8463 103.482C71.8095 110.31 76.0181 114.769 78.9905 114.769ZM95.7209 105.068C96.5701 105.068 97.2495 104.861 97.7497 104.445C99.4199 103.066 99.1179 99.3729 96.9193 94.3103C96.1361 92.5063 95.1453 90.5889 93.9752 88.6149C89.8515 87.0942 85.3694 85.0068 80.906 82.466C79.5944 81.7199 78.3205 80.9548 77.0844 80.1803C77.6505 81.5121 78.1884 82.8722 78.7074 84.2795C80.5097 89.1721 81.8119 93.8664 82.6045 98.0695C87.8322 102.433 92.6069 105.068 95.7114 105.068H95.7209ZM106.365 90.5322C108.045 90.5322 110.215 90.2394 111.036 88.8415C112.593 86.178 108.781 80.832 101.968 75.2405C97.5137 75.2027 92.5597 74.7304 87.5774 73.8709C86.0771 73.6065 84.6145 73.3137 83.1896 73.0114C84.1804 74.0693 85.1712 75.1744 86.1431 76.3172C89.4458 80.1992 92.3144 84.1756 94.5697 87.9443C99.1556 89.6161 103.27 90.5511 106.365 90.5511V90.5322ZM102.562 74.3904C111.489 74.3904 117.585 72.5486 118.104 69.6961C118.641 66.6737 113.216 62.9334 104.883 59.977C100.807 61.4033 96.0511 62.6311 90.8707 63.5284C89.3892 63.7835 87.9077 64.0101 86.4451 64.199C87.7567 64.8602 89.0589 65.5686 90.38 66.3148C94.9471 68.9122 98.9952 71.6796 102.336 74.3998H102.572L102.562 74.3904ZM111.036 30.1775C110.215 28.7796 108.045 28.4868 106.365 28.4868C103.279 28.4868 99.1651 29.4218 94.5885 31.0842C92.3899 34.7584 89.5401 38.7254 86.1526 42.7112C85.1806 43.8541 84.1898 44.9592 83.199 46.017C84.6239 45.7054 86.0865 45.4126 87.5869 45.1575C90.1818 44.7042 92.7768 44.3641 95.2962 44.128C97.5987 43.9202 99.8445 43.8069 101.977 43.788C108.79 38.1964 112.602 32.8504 111.045 30.1869L111.036 30.1775ZM97.7497 14.574C97.2495 14.1584 96.5701 13.9506 95.7209 13.9506C92.6164 13.9506 87.8322 16.5953 82.6045 20.9495C81.8119 25.1526 80.5191 29.8469 78.7074 34.73C78.1884 36.1374 77.6411 37.5069 77.0844 38.8387C78.3111 38.0642 79.585 37.2991 80.906 36.553C85.3599 34.0122 89.8327 31.9343 93.9563 30.4136C98.4196 22.8574 100.146 16.548 97.7591 14.574H97.7497ZM79.8492 4.39208C79.585 4.29762 79.2924 4.2504 78.9905 4.2504C76.0181 4.2504 71.8095 8.70853 67.8463 15.528C68.5635 19.7311 68.9598 24.567 68.9598 29.7619C68.9598 30.2625 68.9598 30.7631 68.9503 31.2636C68.9503 31.6131 68.9409 31.9626 68.922 32.3121C68.922 32.4443 68.922 32.586 68.9126 32.7182C68.9032 33.2094 68.8749 33.6911 68.856 34.1633C69.743 33.0205 70.6677 31.8776 71.6491 30.7253C74.9706 26.8244 78.4432 23.358 81.7742 20.5622C83.35 11.9577 82.7838 5.44994 79.8492 4.39208ZM40.0001 4.2504C39.6981 4.2504 39.415 4.29762 39.1414 4.39208C37.1032 5.11936 36.1029 8.69908 36.4049 14.1962C36.5087 16.1608 36.7823 18.2954 37.1881 20.5434C40.5191 23.3486 44.0105 26.815 47.3414 30.7253C48.3134 31.8681 49.2381 33.011 50.1346 34.1633C50.0685 32.7277 50.0308 31.2637 50.0308 29.7619C50.0308 29.2424 50.0308 28.7323 50.0402 28.2129C50.0402 28.1562 50.0402 28.0995 50.0402 28.0428C50.0402 27.6178 50.0591 27.1928 50.0685 26.7677C50.0779 26.3994 50.0968 26.0499 50.1062 25.691C50.1062 25.5776 50.1062 25.4643 50.1157 25.3604C50.2761 21.8279 50.6252 18.5221 51.1348 15.528C47.1621 8.69908 42.963 4.2504 39.9812 4.2504H40.0001ZM23.2697 13.9506C22.4299 13.9506 21.741 14.1679 21.2409 14.574C18.8535 16.548 20.5709 22.8574 25.0342 30.4136C29.1579 31.9343 33.6212 34.0122 38.0751 36.553C39.3961 37.2991 40.67 38.0642 41.8967 38.8387C41.3306 37.5069 40.7927 36.1374 40.2737 34.73C38.5186 29.9697 37.1975 25.2565 36.3954 20.9589C31.1678 16.5858 26.3742 13.9412 23.2697 13.9412V13.9506ZM12.6256 28.4868C10.946 28.4868 8.77567 28.7796 7.95471 30.1775C6.86954 32.0382 8.43596 35.4006 12.2482 39.4243C13.607 40.86 15.2017 42.324 16.9852 43.7785C21.4485 43.8163 26.4214 44.2886 31.4037 45.1481C32.904 45.4031 34.3667 45.6959 35.7821 46.0076C34.7913 44.9497 33.8099 43.8446 32.8286 42.7018C29.441 38.7254 26.5912 34.7584 24.3926 31.0747C19.816 29.4124 15.7018 28.4773 12.6162 28.4773L12.6256 28.4868ZM43.5386 59.5048C40.5096 58.4941 37.2541 57.1435 33.9231 55.5095C32.0642 55.7267 30.1675 55.9912 28.2709 56.3218C23.6283 57.1246 19.2593 58.2391 15.4282 59.5142C19.3065 60.8082 23.6754 61.8944 28.2709 62.6878C30.1675 63.0184 32.0548 63.2829 33.9231 63.5001C37.2636 61.8661 40.5191 60.5154 43.5481 59.5048H43.5386ZM43.1046 64.0574C43.9821 64.0574 44.8314 64.0385 45.6524 64.0007C47.1055 62.9051 48.521 61.9605 49.8515 61.1766C48.3134 60.8932 46.662 60.4776 44.9069 59.9393C41.9911 60.8554 38.8111 62.1117 35.5367 63.6607C38.1694 63.9157 40.7172 64.0479 43.1046 64.0479V64.0574ZM44.5011 64.8885C44.0388 64.898 43.5858 64.9074 43.1046 64.9074C40.2737 64.9074 37.2164 64.728 34.0741 64.3785C32.4134 65.2002 30.7243 66.0881 29.0541 67.0515C24.9682 69.375 21.2503 71.8874 18.0986 74.381C22.2223 74.2865 26.7328 73.8237 31.2621 73.0397C33.1777 72.7092 35.0461 72.3219 36.8578 71.8969C39.4339 69.2333 42.0288 66.872 44.5106 64.9074L44.5011 64.8885ZM25.742 87.4342C29.5259 85.9702 33.5929 84.0339 37.6505 81.7293C39.3395 80.7754 40.9626 79.7742 42.5101 78.7635C44.0105 75.3821 45.624 72.303 47.2754 69.63C44.3313 70.754 40.9626 71.7835 37.2824 72.6525C36.0086 73.9843 34.7441 75.3821 33.4985 76.8462C30.4695 80.407 27.8462 84.0245 25.742 87.4248V87.4342ZM46.6809 87.7459C47.9265 86.2819 49.106 84.799 50.2195 83.3256C50.4459 79.6986 50.8895 76.2511 51.5122 73.1531C49.1438 75.2027 46.3412 77.2995 43.2084 79.3397C42.4629 81.0209 41.7646 82.7683 41.0947 84.5629C39.4811 88.936 38.2638 93.2241 37.4712 97.1344C37.7259 96.9172 37.9713 96.6905 38.2355 96.4638C41.0286 93.9608 43.9067 91.0139 46.6903 87.7459H46.6809ZM61.5618 73.7292C60.722 72.1236 60.0237 70.6029 59.4858 69.1767C58.948 70.6029 58.2497 72.1236 57.4099 73.7292C57.8156 76.7045 58.5045 80.0009 59.4858 83.4672C60.4578 80.0009 61.156 76.695 61.5618 73.7292ZM66.3648 72.1613C65.4778 71.3585 64.6569 70.5462 63.902 69.7528C63.5245 69.3561 63.1754 68.9689 62.8451 68.5911C62.8357 70.1117 62.7036 71.7835 62.4771 73.5687C63.8925 76.2228 65.6854 79.0941 67.8086 82.0221C67.5255 78.4329 67.0254 75.0893 66.3743 72.1613H66.3648ZM67.4783 73.1436C68.0917 76.1944 68.5352 79.623 68.7616 83.335C69.8657 84.799 71.0452 86.2819 72.3002 87.7459C75.3292 91.3067 78.4809 94.4992 81.5099 97.1344C80.7173 93.2241 79.5095 88.936 77.8959 84.5629C77.2259 82.7588 76.5276 81.0115 75.7822 79.3397C72.706 77.3279 69.894 75.231 67.4877 73.1531L67.4783 73.1436ZM70.3469 69.0917C68.6578 68.4022 67.1292 67.6654 65.7892 66.9193C66.3082 68.3549 66.7706 69.9795 67.1763 71.7458C69.4599 73.7954 72.1492 75.8733 75.1122 77.8757C73.6024 74.6076 71.9794 71.6324 70.3469 69.0917ZM71.6963 69.6206C73.3476 72.2936 74.9706 75.3821 76.4616 78.7635C78.0185 79.7742 79.6416 80.7659 81.3212 81.7199C85.3882 84.0339 89.4647 85.9702 93.258 87.4342C91.116 83.9773 88.4739 80.3692 85.4731 76.8462C84.2181 75.3821 82.9537 73.9843 81.6892 72.6525C78.0091 71.7835 74.6404 70.754 71.6963 69.6206ZM73.0551 64.8413C72.8381 64.8319 72.6305 64.8224 72.4134 64.813C71.7246 64.7752 71.0546 64.7185 70.413 64.6618C69.5448 64.5768 68.7144 64.473 67.9312 64.3407C68.9126 65.5119 69.9034 66.8626 70.8848 68.3738C73.7156 69.5167 76.99 70.584 80.5474 71.5002C77.9997 68.9311 75.4519 66.6831 73.0457 64.8508L73.0551 64.8413ZM75.8671 64.9074C75.3953 64.9074 74.9329 64.9074 74.4705 64.8885C76.9523 66.8531 79.5378 69.2144 82.1139 71.878C83.9256 72.303 85.794 72.6903 87.7095 73.0209C92.2389 73.8048 96.7588 74.2676 100.882 74.3715C97.7213 71.878 94.0129 69.3656 89.927 67.042C88.2474 66.0881 86.5677 65.1908 84.907 64.3691C81.7647 64.7185 78.7074 64.898 75.8765 64.898L75.8671 64.9074ZM103.515 59.5142C99.6935 58.2391 95.334 57.134 90.7008 56.3312C88.8041 56.0006 86.9169 55.7267 85.058 55.5189C81.7175 57.1529 78.462 58.4941 75.433 59.5142C78.462 60.5249 81.7175 61.8755 85.058 63.5095C86.9169 63.2923 88.8041 63.0278 90.7008 62.6973C95.334 61.8944 99.6935 60.7893 103.515 59.5142ZM102.543 44.6286C102.468 44.6286 102.383 44.6286 102.307 44.6286C98.9669 47.3488 94.9094 50.1068 90.3517 52.7042C89.04 53.4504 87.7284 54.1494 86.4168 54.82C87.8794 55.0089 89.3609 55.2261 90.8423 55.4811C96.0228 56.3784 100.779 57.6157 104.855 59.0325C113.216 56.0762 118.651 52.3453 118.104 49.3134C117.971 48.5672 117.452 47.8966 116.613 47.3016C114.225 45.6203 109.167 44.6097 102.562 44.6097L102.543 44.6286ZM87.7095 45.9982C85.794 46.3287 83.9256 46.716 82.1139 47.141C79.5378 49.814 76.9523 52.1659 74.4705 54.1305C74.9235 54.121 75.3858 54.1116 75.8671 54.1116C78.7074 54.1116 81.7553 54.291 84.8975 54.6405C86.5583 53.8188 88.238 52.9309 89.9176 51.9675C94.0035 49.644 97.7213 47.1316 100.873 44.638C99.0896 44.6758 97.2401 44.7892 95.3434 44.9686C92.8523 45.1953 90.2762 45.5448 87.7095 45.9887V45.9982ZM71.6963 49.3984C74.6404 48.265 78.0091 47.2355 81.6892 46.3665C82.9631 45.0442 84.2276 43.6369 85.4731 42.1729C88.5022 38.612 91.1254 34.9945 93.2297 31.5942C89.4458 33.0582 85.3788 34.9945 81.3212 37.2991C79.6321 38.2625 78.0091 39.2543 76.4616 40.2555C74.9612 43.6369 73.3476 46.7254 71.6963 49.3984ZM67.1669 47.311C66.7612 49.0678 66.2988 50.6735 65.7892 52.1092C67.1386 51.363 68.6578 50.6357 70.3469 49.9368C71.9794 47.4055 73.593 44.4303 75.1028 41.1622C72.0926 43.2024 69.4127 45.2898 67.1669 47.311ZM67.4783 45.8659C69.8468 43.8258 72.6399 41.7289 75.7822 39.6888C76.5182 38.0075 77.2259 36.2602 77.8959 34.4656C79.5095 30.0924 80.7267 25.8043 81.5099 21.894C78.4809 24.5292 75.3292 27.7217 72.3002 31.2825C71.0546 32.7465 69.8751 34.2294 68.7616 35.6934C68.5352 39.396 68.0917 42.8246 67.4783 45.8659ZM67.1292 16.7747C65.1947 20.2789 63.3264 24.3214 61.7222 28.6662C61.0522 30.4703 60.4672 32.2554 59.9388 34.0028C61.0051 37.5541 61.7788 40.9261 62.2601 43.9958C63.7793 41.2756 65.676 38.3664 67.9124 35.3912C68.0256 33.5683 68.0822 31.6887 68.0822 29.7713C68.0822 25.1337 67.7331 20.7039 67.1292 16.7747ZM51.4839 45.8659C50.8706 42.8246 50.4271 39.3865 50.2006 35.684C49.0966 34.2105 47.9076 32.7371 46.6715 31.2825C43.633 27.7123 40.4719 24.5198 37.4334 21.8751C38.2355 25.8421 39.4716 30.1302 41.0758 34.4656C41.7363 36.2602 42.444 38.0075 43.1895 39.6888C46.3223 41.7289 49.1154 43.8258 51.4839 45.8659ZM48.6153 49.9368C50.3044 50.6357 51.8331 51.363 53.1824 52.1092C53.0975 51.8636 53.0032 51.618 52.9277 51.363C52.5125 50.1257 52.135 48.7656 51.8048 47.311C49.5589 45.2898 46.8696 43.2024 43.8689 41.1622C45.3787 44.4208 47.0017 47.396 48.6248 49.9274L48.6153 49.9368ZM47.2754 49.4079C45.624 46.7349 44.0105 43.6557 42.5101 40.2744C40.9626 39.2637 39.3395 38.272 37.6505 37.3086C33.5929 35.0039 29.5259 33.0677 25.742 31.6037C27.8462 35.0039 30.4695 38.6215 33.4985 42.1823C34.7441 43.6463 36.018 45.0536 37.2824 46.376C40.9626 47.2449 44.3313 48.2744 47.2754 49.4079ZM45.9071 54.1871C47.7849 54.2721 49.5023 54.4422 51.031 54.6877C50.0496 53.5165 49.0588 52.1659 48.0775 50.6546C45.2466 49.5023 41.9722 48.435 38.4148 47.5283C40.9626 50.0974 43.5103 52.3453 45.9166 54.1777L45.9071 54.1871ZM43.1046 54.121C43.5764 54.121 44.0388 54.121 44.5011 54.1399C42.0194 52.1753 39.4339 49.8235 36.8484 47.1505C35.0461 46.7254 33.1777 46.3382 31.2527 46.0076C26.7139 45.2142 22.1939 44.7608 18.0515 44.6569C21.2598 47.1788 24.9965 49.6818 29.0446 51.9864C30.7243 52.9404 32.4039 53.8377 34.0647 54.6594C37.2069 54.3099 40.2548 54.1305 43.0951 54.1305L43.1046 54.121ZM49.8515 57.8424C48.521 57.0679 47.1055 56.114 45.6524 55.0183C44.8314 54.99 43.9821 54.9711 43.114 54.9711C40.7267 54.9711 38.1694 55.1033 35.5367 55.3583C38.8205 56.9074 41.9911 58.1636 44.9069 59.0892C46.6526 58.5508 48.3134 58.1352 49.8515 57.8519V57.8424ZM53.2485 59.5237C52.5408 59.2498 51.8048 58.9097 51.0404 58.5036C49.6061 58.7114 48.0492 59.0609 46.3884 59.5237C48.0492 59.9865 49.6061 60.3265 51.0404 60.5437C51.8048 60.1376 52.5502 59.7976 53.2485 59.5237ZM51.031 64.3502C49.5023 64.6052 47.7849 64.7752 45.9071 64.8508C43.5009 66.6831 40.9626 68.9311 38.4053 71.5002C41.9628 70.5934 45.2372 69.5261 48.068 68.3738C49.0494 66.8626 50.0402 65.5119 51.0216 64.3407L51.031 64.3502ZM53.6731 65.663C54.0034 64.8602 54.3525 64.1424 54.7017 63.4812C53.9845 63.7173 53.2013 63.9251 52.3426 64.1046C51.4084 65.153 50.4554 66.3809 49.5023 67.7693C51.0593 67.0798 52.4559 66.3714 53.6637 65.6536L53.6731 65.663ZM52.6918 68.4116C52.8522 67.8921 53.022 67.401 53.1824 66.9287C51.8425 67.6749 50.3044 68.4116 48.6153 69.1105C46.9829 71.6513 45.3693 74.6171 43.8595 77.8851C46.8696 75.845 49.5589 73.7576 51.8048 71.7363C52.069 70.5651 52.3709 69.4695 52.6823 68.421L52.6918 68.4116ZM56.1549 67.2498C56.1926 66.3809 56.2681 65.578 56.3813 64.8413C55.7868 65.3041 55.1169 65.7764 54.3714 66.2392C54.0695 66.9854 53.7864 67.7882 53.5222 68.6572C53.324 69.2994 53.1353 69.97 52.956 70.6596C54.1921 69.4883 55.2679 68.336 56.1549 67.2498ZM56.504 73.5876C56.2775 71.8024 56.1549 70.1306 56.136 68.6099C55.1263 69.7717 53.9373 70.9807 52.588 72.2086C51.918 75.1838 51.4462 78.518 51.1631 82.0599C53.2862 79.1224 55.0886 76.2511 56.4946 73.5876H56.504ZM61.5901 63.9629C61.3165 63.6984 61.0711 63.4434 60.8446 63.1884C60.8446 63.519 60.8258 63.8685 60.788 64.2368C61.0806 64.8035 61.458 65.3986 61.8921 66.022C61.826 65.2758 61.7317 64.5863 61.5901 63.9724V63.9629ZM63.015 62.9995C62.6753 62.8484 62.345 62.6878 62.0525 62.5272C62.1657 62.8389 62.2695 63.179 62.3544 63.5379C62.8357 63.9629 63.383 64.3974 64.0152 64.8319C63.6944 64.1518 63.3641 63.5473 63.015 63.0089V62.9995ZM64.2794 63.4812C64.6474 64.1329 64.9871 64.8696 65.3174 65.663C66.5252 66.3809 67.9312 67.0893 69.4882 67.7788C68.5352 66.3903 67.5821 65.1624 66.6479 64.114C65.7892 63.9346 64.9966 63.7268 64.2794 63.4812ZM67.9501 58.5036C67.1858 58.9097 66.4403 59.2498 65.742 59.5237C66.4498 59.7976 67.1858 60.1376 67.9501 60.5437C69.3844 60.336 70.9414 59.9959 72.6022 59.5237C70.9414 59.0609 69.3844 58.7114 67.9501 58.5036ZM69.1391 57.8424C70.6772 58.1258 72.3285 58.5414 74.0742 59.0797C76.99 58.1636 80.17 56.8979 83.4538 55.3489C80.8211 55.0939 78.2733 54.9616 75.8765 54.9616C74.999 54.9616 74.1497 54.9805 73.3382 55.0089C71.885 56.1045 70.4696 57.049 69.1391 57.833V57.8424ZM67.0442 55.7361C66.4686 56.369 65.893 56.9262 65.3363 57.4174C66.1195 57.4363 66.9499 57.5118 67.8369 57.6346C69.0919 56.9546 70.4318 56.114 71.8284 55.1128C70.0638 55.2355 68.4597 55.4433 67.0442 55.7361ZM70.9131 50.6641C69.9317 52.1753 68.9315 53.526 67.9595 54.6972C69.4882 54.4422 71.2056 54.2816 73.074 54.1966C75.4802 52.3642 78.028 50.1163 80.5758 47.5472C77.0183 48.4539 73.7439 49.5212 70.9131 50.6735V50.6641ZM62.8546 50.4374C63.8548 49.2851 65.0343 48.0855 66.3837 46.8577C67.0348 43.9297 67.5255 40.5955 67.818 37.0063C65.7043 39.9343 63.902 42.8057 62.4865 45.4598C62.7225 47.2544 62.8451 48.9167 62.8546 50.4374ZM59.9482 51.1458C60.2219 51.977 60.4295 52.7515 60.5804 53.4787C60.9768 52.8365 61.4391 52.1848 61.977 51.5047C62.0053 50.1163 61.9298 48.5672 61.7505 46.8954C61.0051 48.4067 60.3917 49.8423 59.9388 51.1552L59.9482 51.1458ZM57.4193 45.3181C57.976 46.376 58.4667 47.4149 58.9008 48.4161C59.1178 48.9167 59.3065 49.3984 59.4858 49.8612C60.0237 48.435 60.722 46.9143 61.5618 45.2992C61.156 42.324 60.4672 39.0276 59.4858 35.5612C58.5045 39.0276 57.8156 42.3334 57.4099 45.3087L57.4193 45.3181ZM56.7116 44.0241C57.1928 40.9544 57.9666 37.573 59.0423 34.0122C58.5139 32.2648 57.9194 30.4703 57.2589 28.6757C55.6547 24.3309 53.7958 20.2883 51.8519 16.7842C51.2386 20.7134 50.8989 25.1432 50.8989 29.7808C50.8989 31.6981 50.9555 33.5777 51.0782 35.4006C53.2674 38.3287 55.1829 41.2472 56.7305 44.0147L56.7116 44.0241ZM52.6068 46.8671C53.9468 48.0855 55.1357 49.2851 56.1265 50.4468C56.1454 48.9262 56.2681 47.2449 56.504 45.4503C55.0697 42.749 53.2674 39.8966 51.1725 37.0063C51.4556 40.6049 51.9557 43.9485 52.6068 46.8766V46.8671ZM54.3714 52.827C55.1169 53.2804 55.7868 53.7527 56.3813 54.2155C56.2681 53.4693 56.1926 52.6665 56.1549 51.8069C55.2773 50.7207 54.2016 49.5873 52.9843 48.4161C53.0315 48.605 53.0787 48.7939 53.1258 48.9734C53.5033 50.3807 53.9185 51.6747 54.3714 52.8176V52.827ZM54.7111 55.5756C54.3431 54.9239 54.0034 54.1966 53.6731 53.3937C52.4653 52.6759 51.0687 51.9581 49.5118 51.278C50.4648 52.6665 51.4179 53.9038 52.3426 54.9427C53.2013 55.1222 53.994 55.33 54.7111 55.5756ZM54.9659 57.4457C55.3433 57.4741 55.7113 57.5118 56.0416 57.5685C55.834 57.3229 55.6264 57.049 55.4283 56.7657C54.8338 56.5201 54.1544 56.3029 53.4184 56.0951C53.9468 56.6145 54.4658 57.0679 54.9659 57.4457ZM53.6543 57.4363C53.0881 56.9451 52.5219 56.3784 51.9463 55.755C50.5309 55.4622 48.9267 55.2544 47.1622 55.1317C48.5587 56.1234 49.8987 56.9735 51.1537 57.6535C52.0407 57.5307 52.8805 57.4552 53.6543 57.4363ZM54.7017 59.0514C55.0036 58.9664 55.2962 58.9003 55.5792 58.8531C55.2867 58.6925 55.0036 58.5036 54.7111 58.2863C54.4941 58.2769 54.2771 58.2769 54.0695 58.2769C53.5882 58.2769 53.0692 58.3052 52.5408 58.3525C53.2296 58.6642 53.8902 58.9192 54.513 59.1081C54.5696 59.0892 54.6356 59.0703 54.6922 59.0514H54.7017ZM53.6543 61.6488C52.8711 61.6299 52.0407 61.5544 51.1537 61.4316C49.8987 62.1022 48.5587 62.9523 47.1622 63.9535C48.9267 63.8307 50.5309 63.6134 51.9463 63.3301C52.5219 62.6973 53.0975 62.1305 53.6543 61.6488ZM56.0322 61.5166C55.6925 61.5733 55.3433 61.6016 54.9659 61.6299C54.4658 62.0078 53.9468 62.4611 53.4184 62.9806C54.1544 62.7823 54.8243 62.565 55.4188 62.3195C55.617 62.0266 55.8246 61.7622 56.0322 61.5166ZM56.9381 62.5461C56.6455 62.7067 56.3247 62.8673 55.985 63.0184C55.6359 63.5473 55.3056 64.1613 54.9753 64.8413C55.5981 64.4163 56.1549 63.9818 56.6267 63.5568C56.7116 63.1978 56.8154 62.8673 56.9286 62.5461H56.9381ZM58.1931 64.2746C58.1553 63.9062 58.1365 63.5473 58.127 63.2073C57.9006 63.4623 57.6646 63.7268 57.3816 63.9818C57.24 64.6052 57.1457 65.2947 57.0796 66.0408C57.5231 65.4269 57.8911 64.8319 58.1836 64.2652L58.1931 64.2746ZM64.0058 61.6299C63.6283 61.6016 63.2603 61.5638 62.93 61.5072C63.1376 61.7527 63.3358 62.0266 63.534 62.31C64.1284 62.5556 64.8079 62.7823 65.5439 62.9806C65.0154 62.4611 64.4965 62.0078 63.9963 61.6299H64.0058ZM65.3174 61.6488C65.8836 62.1305 66.4498 62.6973 67.0254 63.3301C68.4408 63.6134 70.045 63.8212 71.8095 63.9535C70.413 62.9523 69.073 62.1022 67.818 61.4316C66.931 61.5544 66.0912 61.6299 65.3174 61.6488ZM63.3924 60.2321C63.6755 60.4021 63.968 60.5815 64.2606 60.7988C64.4776 60.8082 64.6946 60.8177 64.9022 60.8177C65.3835 60.8177 65.9025 60.7893 66.4309 60.7421C65.742 60.4304 65.0721 60.1754 64.4587 59.977C64.0907 60.0904 63.7416 60.1659 63.3924 60.2321ZM64.2606 58.2863C63.968 58.5036 63.6755 58.6925 63.3924 58.8531C63.7321 58.9192 64.0907 59.0042 64.4587 59.1081C65.0815 58.9192 65.742 58.6642 66.4309 58.3525C65.9025 58.3052 65.3835 58.2769 64.9022 58.2769C64.6946 58.2769 64.4776 58.2769 64.2606 58.2863ZM63.5434 56.7657C63.3452 57.0585 63.1376 57.3229 62.93 57.5685C63.2698 57.5118 63.6189 57.4741 63.9963 57.4457C64.4965 57.0679 65.0154 56.6145 65.5439 56.0951C64.8079 56.2934 64.1379 56.5107 63.5434 56.7657ZM65.2985 53.4032C65.2985 53.4032 65.2891 53.441 65.2797 53.4599C65.2514 53.5165 65.2325 53.5732 65.2042 53.6299C65.1381 53.781 65.0815 53.9132 65.0155 54.0549C64.7701 54.6027 64.5153 55.1128 64.2606 55.5756C64.9777 55.3394 65.7703 55.1317 66.629 54.9427C67.5538 53.8943 68.5068 52.6665 69.4599 51.278C67.9029 51.9675 66.4969 52.6759 65.2891 53.3937L65.2985 53.4032ZM60.8446 55.8684C61.0617 55.6134 61.307 55.3489 61.5807 55.0939C61.7222 54.4705 61.826 53.781 61.8921 53.0348C61.4486 53.6488 61.09 54.2344 60.788 54.8011C60.8258 55.1789 60.8447 55.5284 60.8541 55.8684H60.8446ZM59.0612 54.6594C59.2311 54.99 59.3726 55.3206 59.4858 55.6417C59.5991 55.33 59.7406 55.0089 59.901 54.6783C59.8161 54.0455 59.6746 53.3654 59.4764 52.6287C59.2782 53.356 59.1367 54.036 59.0518 54.6688L59.0612 54.6594ZM57.391 55.0939C57.6646 55.3583 57.91 55.6134 58.1365 55.8778C58.1365 55.5378 58.1553 55.1883 58.2025 54.8105C57.9006 54.2438 57.5325 53.6488 57.0985 53.0348C57.1645 53.781 57.2683 54.4705 57.4004 55.0939H57.391ZM55.9661 56.0573C56.3153 56.2084 56.6361 56.369 56.9381 56.539C56.8248 56.2273 56.721 55.8873 56.6361 55.5284C56.1549 55.1033 55.6076 54.6688 54.9753 54.2438C55.2962 54.9239 55.6264 55.5284 55.9661 56.0667V56.0573ZM62.3356 55.5284C62.2506 55.8873 62.1468 56.2179 62.0336 56.539C62.3261 56.369 62.647 56.2179 62.9867 56.0667C63.3358 55.5378 63.6661 54.9239 63.9963 54.2438C63.3736 54.6688 62.8168 55.1033 62.345 55.5284H62.3356ZM54.7017 60.7893C54.9942 60.5721 55.2867 60.3926 55.5698 60.2226C55.2301 60.1565 54.8715 60.0809 54.5035 59.9676C53.8807 60.1565 53.2202 60.4115 52.5313 60.7327C53.0598 60.7799 53.5788 60.8082 54.06 60.8082C54.2676 60.8082 54.4752 60.8082 54.7017 60.7893ZM56.9947 51.5047C57.5325 52.1848 58.0043 52.8554 58.4007 53.4882C58.5516 52.7515 58.7592 51.9675 59.0329 51.1458C58.7687 50.3902 58.4667 49.5968 58.0987 48.7561C57.8345 48.1422 57.5325 47.5094 57.2211 46.8671C57.0419 48.5484 56.9664 50.1163 56.9947 51.5141V51.5047ZM62.8168 51.8069C62.7885 52.6665 62.713 53.4693 62.5998 54.2155C63.1943 53.7527 63.8642 53.2804 64.6003 52.827C65.1098 51.533 65.5816 50.0501 65.9968 48.4161C64.7795 49.5873 63.7038 50.7207 62.8168 51.8069ZM59.5425 66.2392C59.7123 65.5969 59.835 64.9924 59.9105 64.4257C59.7406 64.0951 59.5991 63.7646 59.4858 63.4434C59.3632 63.7646 59.2311 64.0857 59.0612 64.4163C59.1461 65.0491 59.2877 65.7292 59.4858 66.4564C59.5047 66.3809 59.5236 66.3148 59.5425 66.2392ZM57.2211 72.1708C57.9666 70.6596 58.5705 69.2333 59.0329 67.911C58.7592 67.0893 58.5516 66.3053 58.4007 65.5686C58.0043 66.2109 57.5325 66.872 56.9947 67.5615C56.9664 68.95 57.0419 70.499 57.2211 72.1708ZM83.4444 63.6984C80.1606 62.1494 76.99 60.8932 74.0648 59.977C72.3191 60.5154 70.6583 60.931 69.1296 61.2144C70.4601 61.9983 71.8756 62.9428 73.3287 64.029C74.1497 64.0668 74.9895 64.0857 75.8671 64.0857C78.2544 64.0857 80.8117 63.9535 83.4444 63.6984ZM64.5248 69.205C64.9871 69.6961 65.4873 70.1873 66.0063 70.6879C65.5911 69.0444 65.1193 67.5521 64.6097 66.2486C63.8642 65.7858 63.2037 65.323 62.6092 64.8508C62.7225 65.5969 62.7979 66.3998 62.8357 67.2687C63.3358 67.8921 63.902 68.5438 64.5342 69.205H64.5248ZM61.9676 67.571C61.4297 66.8909 60.9579 66.2203 60.5616 65.5875C60.4106 66.3242 60.203 67.0987 59.9293 67.9204C60.3823 69.2333 60.9956 70.669 61.7411 72.1802C61.9204 70.5084 61.9959 68.9594 61.9676 67.571ZM54.8904 5.50661C54.8527 5.59162 54.8149 5.67662 54.7677 5.77107C54.7206 5.87497 54.6734 5.97887 54.6262 6.08277C53.5788 8.53852 52.7012 11.7404 52.0501 15.4335C54.1921 19.1644 56.2587 23.5753 58.0421 28.3829C58.5611 29.7902 59.0423 31.1881 59.4764 32.5576C59.9105 31.1881 60.3917 29.7996 60.9107 28.3829C62.6847 23.5753 64.7512 19.1644 66.9027 15.4335C65.3929 6.81949 62.5998 0.878464 59.4764 0.878464C59.3349 0.878464 59.2027 0.887909 59.0612 0.916245C57.5986 1.17127 56.1454 2.78639 54.881 5.50661H54.8904ZM67.9124 83.6656C65.676 80.6903 63.7699 77.7812 62.2601 75.061C61.7788 78.1213 61.0051 81.4932 59.9293 85.054C60.4578 86.8014 61.0522 88.596 61.7128 90.3906C63.3169 94.7353 65.1759 98.7873 67.1197 102.282C67.7236 98.3529 68.0728 93.9231 68.0728 89.2855C68.0728 87.3681 68.0162 85.4885 67.9029 83.6656H67.9124ZM50.88 89.2855C50.88 93.9231 51.2292 98.3529 51.8331 102.282C53.7675 98.7873 55.6359 94.7353 57.24 90.3906C57.91 88.5865 58.495 86.8014 59.0235 85.054C57.9572 81.5026 57.1834 78.1307 56.7022 75.061C55.1829 77.7812 53.2862 80.6903 51.0404 83.675C50.9366 85.5074 50.88 87.3775 50.88 89.2855ZM20.8257 97.6917C20.7879 97.8239 20.7502 97.9562 20.7125 98.0789C20.6653 98.2584 20.6087 98.4473 20.5615 98.6268C20.5615 98.6457 20.5615 98.6646 20.552 98.674C19.9387 101.224 20.0519 103.132 20.9389 104.171C21.0239 104.275 21.1277 104.369 21.2315 104.464C21.7316 104.879 22.411 105.087 23.2602 105.087C26.3648 105.087 31.1489 102.443 36.3766 98.0884C37.1598 93.8853 38.462 89.191 40.2737 84.2984C40.7927 82.8911 41.34 81.531 41.8967 80.1992C40.67 80.9643 39.3961 81.7388 38.0751 82.4849C33.6212 85.0163 29.1579 87.1036 25.0342 88.6243C23.1093 91.8923 21.6844 94.9242 20.8917 97.4745C20.8729 97.5406 20.8446 97.6161 20.8257 97.6917ZM16.419 44.6569C7.49234 44.6569 1.39655 46.4987 0.877556 49.3606C0.500107 51.4669 3.14225 54.1116 8.12457 56.5957C9.89857 57.4835 11.899 58.3147 14.0694 59.0892C18.1553 57.663 22.93 56.4351 28.1199 55.5284C29.6014 55.2733 31.0828 55.0466 32.5455 54.8672C31.2338 54.1966 29.9316 53.4976 28.6106 52.7515C24.1661 50.2202 20.0897 47.4527 16.6643 44.6758C16.5794 44.6758 16.4945 44.6758 16.4096 44.6758L16.419 44.6569ZM12.8238 59.5331C10.9837 58.8531 9.27578 58.1163 7.73768 57.3513C2.31186 54.6405 -0.424637 51.7503 0.037735 49.2095C0.62278 45.9226 6.44492 43.9202 15.6547 43.8163C14.1637 42.5507 12.8049 41.285 11.6254 40.0382C7.47346 35.6651 5.89762 32.0287 7.20925 29.7902C8.0302 28.3829 9.85139 27.6745 12.6256 27.6745C15.5792 27.6745 19.448 28.4962 23.7415 29.9791C19.4008 22.3663 18.0231 16.1608 20.6842 13.9601C21.3447 13.4217 22.2128 13.1383 23.2602 13.1383C26.3836 13.1383 31.0545 15.613 36.1595 19.7405C35.8387 17.8137 35.6311 15.9908 35.5273 14.2717C35.197 8.29294 36.3671 4.51486 38.83 3.62702C39.1886 3.49478 39.5754 3.42867 39.9812 3.42867C43.1423 3.42867 47.3603 7.63178 51.3613 14.2623C51.9746 11.0793 52.7673 8.29294 53.7014 6.06388C53.7109 6.02609 53.7297 5.98831 53.7392 5.95998C53.8147 5.78996 53.8902 5.6294 53.9562 5.45938C54.0223 5.32715 54.0789 5.19492 54.1355 5.06269C54.1449 5.03435 54.1638 5.01546 54.1733 4.98712C55.7114 1.76631 57.5325 0.0378418 59.467 0.0378418C62.9489 0.0378418 65.9402 5.67662 67.5821 14.2717C71.5925 7.64122 75.8105 3.43811 78.9622 3.43811C79.3679 3.43811 79.7548 3.50423 80.1134 3.63646C83.3877 4.80766 84.237 11.1076 82.8027 19.7311C87.9077 15.613 92.5786 13.1478 95.6926 13.1478C96.74 13.1478 97.6175 13.4217 98.2686 13.9695C100.939 16.1702 99.552 22.3757 95.2113 29.9886C99.5142 28.5057 103.364 27.6839 106.327 27.6839C109.092 27.6839 110.923 28.3923 111.744 29.7996C113.48 32.7749 110.036 38.1303 103.317 43.8258C108.866 43.8919 113.178 44.638 115.858 45.9509C117.622 46.8104 118.679 47.9155 118.915 49.219C119.519 52.5909 114.423 56.4634 106.148 59.552C114.461 62.5839 119.557 66.4564 118.953 69.8378C118.358 73.1247 112.555 75.1177 103.355 75.231C110.073 80.9265 113.527 86.2819 111.781 89.2571C110.96 90.6645 109.139 91.3729 106.365 91.3729C103.402 91.3729 99.5331 90.5417 95.2302 89.0588C96.2021 90.7589 97.0325 92.4024 97.7119 93.9703C100.099 99.4863 100.307 103.425 98.3064 105.087C97.6459 105.635 96.7777 105.909 95.7303 105.909C92.6164 105.909 87.9454 103.444 82.8404 99.3257C84.2747 107.949 83.4255 114.249 80.1511 115.42C79.7831 115.553 79.4057 115.619 78.9999 115.619C75.8482 115.619 71.6302 111.416 67.6198 104.785C65.9779 113.371 62.9867 119.009 59.5047 119.009C56.0227 119.009 53.0315 113.371 51.3896 104.785C47.3886 111.416 43.1612 115.619 40.0095 115.619C39.6038 115.619 39.2169 115.553 38.8583 115.42C35.5839 114.249 34.7347 107.949 36.169 99.3257C31.0734 103.444 26.4025 105.909 23.2791 105.909C22.2223 105.909 21.3541 105.635 20.703 105.087C19.1272 103.784 18.929 101.064 20.0708 97.2761C20.0991 97.1628 20.1369 97.0589 20.1652 96.9455C20.1935 96.8605 20.2312 96.7661 20.2595 96.6716C21.005 94.4048 22.1845 91.8262 23.7604 89.0588C19.4669 90.5417 15.6075 91.3729 12.6445 91.3729C9.8797 91.3729 8.04908 90.6645 7.22813 89.2571C5.49187 86.2819 8.93608 80.9265 15.6547 75.231C6.45436 75.1177 0.641647 73.1247 0.0566025 69.8378C-0.54731 66.4564 4.55768 62.5839 12.8427 59.4953L12.8238 59.5331Z" fill="black"/>
</g>
<defs>
<clipPath id="clip0_4190_186">
<rect width="119" height="119" fill="white" transform="matrix(-1 0 0 1 119 0)"/>
</clipPath>
</defs>
</svg>
