<svg width="150" height="99" viewBox="0 0 150 99" fill="none" xmlns="http://www.w3.org/2000/svg">
<g clip-path="url(#clip0_4190_313)">
<path d="M148.87 36.8403C148.228 40.4358 140.544 42.7574 129.28 42.7574H128.995C124.784 39.3286 119.669 35.8402 113.912 32.5661C112.259 31.6256 110.606 30.7327 108.953 29.8993C110.808 29.6611 112.664 29.3873 114.531 29.0659C120.894 27.9586 126.913 26.4109 132.182 24.5774C142.697 28.3039 149.548 33.0186 148.858 36.8284L148.87 36.8403ZM139.961 60.9732C138.926 62.7352 136.191 63.1043 134.073 63.1043C130.184 63.1043 124.998 61.9256 119.229 59.8302C116.993 56.0799 114.21 52.1034 110.975 48.0555C110.868 47.9245 110.749 47.7816 110.642 47.6507C110.368 47.3054 110.094 46.972 109.809 46.6268C109.405 46.1386 109 45.6505 108.584 45.1743C107.359 43.7337 106.11 42.3407 104.861 41.0073C106.657 41.4002 108.489 41.7693 110.38 42.0907C116.648 43.1741 122.893 43.7694 128.519 43.817C137.107 50.8652 141.912 57.6158 139.949 60.9613L139.961 60.9732ZM100.662 93.4757C100.329 93.5948 99.9604 93.6543 99.5798 93.6543C95.8211 93.6543 90.5281 88.0348 85.5206 79.427C86.4246 74.129 86.9241 68.0332 86.9241 61.497C86.9241 59.6278 86.8766 57.7705 86.7933 55.949C87.9114 57.3895 89.077 58.8301 90.314 60.2826C93.359 63.8543 96.4991 67.1403 99.6035 70.0096C100.781 71.093 101.935 72.1288 103.089 73.0932C105.063 83.9393 104.349 92.1542 100.662 93.4757ZM75.006 97.9404C71.0689 97.9404 67.5482 90.4636 65.6451 79.5937C68.357 74.8909 70.9619 69.331 73.198 63.2591C73.8522 61.4851 74.4469 59.735 75.006 58.0086C75.5531 59.735 76.1597 61.4851 76.8139 63.2591C79.0501 69.3191 81.6549 74.879 84.3669 79.5937C82.4638 90.4636 78.943 97.9404 75.006 97.9404ZM50.4322 93.6662C50.0516 93.6662 49.6828 93.6067 49.3498 93.4876C45.6507 92.1661 44.937 83.9512 46.9234 73.1051C51.1221 69.581 55.4992 65.2116 59.686 60.2945C60.923 58.854 62.0887 57.4014 63.2068 55.9609C63.1235 57.7705 63.0759 59.6159 63.0759 61.5089C63.0759 68.0452 63.5874 74.1409 64.4795 79.4389C59.4838 88.0467 54.1789 93.6662 50.4322 93.6662ZM29.3435 81.4391C28.273 81.4391 27.4166 81.1771 26.7862 80.6533C24.6809 78.9151 25.0615 74.2599 27.8329 67.8785C28.8201 65.6045 30.069 63.1876 31.5439 60.6993C36.7418 58.7825 42.3916 56.1513 48.0176 52.9487C49.671 52.0082 51.2767 51.0438 52.8349 50.0675C52.1212 51.7462 51.4432 53.4607 50.789 55.2346C48.5172 61.4018 46.8758 67.3189 45.8766 72.6169C39.2872 78.1174 33.2686 81.4391 29.3554 81.4391H29.3435ZM15.9266 63.1162C13.8094 63.1162 11.0737 62.7471 10.0389 60.9851C8.07631 57.6277 12.8816 50.889 21.4694 43.8409C27.0835 43.7932 33.3281 43.1979 39.6083 42.1145C41.4995 41.7812 43.3431 41.4121 45.1392 41.0311C43.8903 42.3645 42.6414 43.7575 41.4163 45.1981C37.2532 50.0913 33.6373 55.1036 30.7946 59.854C25.0139 61.9613 19.828 63.14 15.9266 63.14V63.1162ZM20.72 42.7693C9.46796 42.7693 1.78419 40.4477 1.13 36.8522C0.452019 33.0424 7.29129 28.3277 17.794 24.6012C22.9324 26.399 28.9272 27.9467 35.4572 29.0778C37.3246 29.3992 39.192 29.685 41.0356 29.9231C39.3823 30.7565 37.7409 31.6494 36.0757 32.59C30.3188 35.864 25.2161 39.3524 21.0055 42.7812H20.7081L20.72 42.7693ZM10.0389 -12.9613C11.0737 -14.7233 13.8094 -15.0924 15.9266 -15.0924C19.8161 -15.0924 25.002 -13.9137 30.7708 -11.8183C33.5422 -7.18702 37.1343 -2.18661 41.4044 2.83759C42.6295 4.27818 43.8784 5.67115 45.1273 7.00459C43.3312 6.6117 41.4876 6.24263 39.5964 5.92117C36.3255 5.3497 33.0545 4.92109 29.8787 4.62345C26.9765 4.36152 24.1456 4.21865 21.4575 4.19484C12.8698 -2.85334 8.06442 -9.59197 10.027 -12.9494L10.0389 -12.9613ZM26.7862 -32.6295C27.4166 -33.1534 28.273 -33.4153 29.3435 -33.4153C33.2567 -33.4153 39.2872 -30.0817 45.8766 -24.5932C46.8758 -19.2951 48.5053 -13.378 50.789 -7.22273C51.4432 -5.44878 52.1331 -3.72245 52.8349 -2.04375C51.2886 -3.02002 49.6828 -3.98438 48.0176 -4.92493C42.4035 -8.12756 36.7656 -10.7468 31.5677 -12.6636C25.9417 -22.1882 23.765 -30.1412 26.7743 -32.6295H26.7862ZM49.3498 -45.4639C49.6828 -45.5829 50.0516 -45.6424 50.4322 -45.6424C54.1789 -45.6424 59.4838 -40.023 64.4795 -31.427C63.5755 -26.129 63.0759 -20.0333 63.0759 -13.4851C63.0759 -12.8541 63.0759 -12.2231 63.0878 -11.5921C63.0878 -11.1516 63.0997 -10.7111 63.1235 -10.2706C63.1235 -10.1039 63.1235 -9.92533 63.1354 -9.75865C63.1473 -9.13955 63.183 -8.53236 63.2068 -7.93708C62.0887 -9.37767 60.923 -10.8183 59.686 -12.2708C55.4992 -17.1878 51.1221 -21.5572 46.9234 -25.0813C44.937 -35.9274 45.6507 -44.1304 49.3498 -45.4639ZM99.5798 -45.6424C99.9604 -45.6424 100.317 -45.5829 100.662 -45.4639C103.231 -44.5471 104.492 -40.0349 104.112 -33.1057C103.981 -30.6294 103.636 -27.9387 103.124 -25.1051C98.9256 -21.5691 94.5247 -17.1997 90.3259 -12.2708C89.1008 -10.8302 87.9352 -9.38957 86.8052 -7.93708C86.8885 -9.74674 86.936 -11.5921 86.936 -13.4851C86.936 -14.1399 86.936 -14.7829 86.9241 -15.4377C86.9241 -15.5091 86.9241 -15.5805 86.9241 -15.652C86.9241 -16.1877 86.9004 -16.7235 86.8885 -17.2592C86.8766 -17.7236 86.8528 -18.1641 86.8409 -18.6165C86.8409 -18.7594 86.8409 -18.9022 86.829 -19.0332C86.6268 -23.4859 86.1867 -27.6529 85.5444 -31.427C90.5519 -40.0349 95.8449 -45.6424 99.6035 -45.6424H99.5798ZM120.668 -33.4153C121.727 -33.4153 122.595 -33.1415 123.226 -32.6295C126.235 -30.1412 124.07 -22.1882 118.444 -12.6636C113.246 -10.7468 107.62 -8.12756 102.006 -4.92493C100.341 -3.98438 98.7353 -3.02002 97.189 -2.04375C97.9026 -3.72245 98.5806 -5.44878 99.2348 -7.22273C101.447 -13.2232 103.112 -19.1642 104.123 -24.5813C110.713 -30.0936 116.755 -33.4272 120.668 -33.4272V-33.4153ZM134.085 -15.0924C136.203 -15.0924 138.938 -14.7233 139.973 -12.9613C141.341 -10.6159 139.366 -6.37743 134.561 -1.30559C132.848 0.504074 130.838 2.34946 128.59 4.18293C122.964 4.23056 116.696 4.82584 110.416 5.90926C108.524 6.23072 106.681 6.59979 104.897 6.99268C106.145 5.65924 107.382 4.26627 108.619 2.82568C112.89 -2.18662 116.482 -7.18701 119.253 -11.8302C125.022 -13.9256 130.208 -15.1043 134.097 -15.1043L134.085 -15.0924ZM95.1194 24.0059C98.9375 22.732 103.041 21.0295 107.24 18.9698C109.583 19.2437 111.974 19.577 114.364 19.9937C120.217 21.0057 125.724 22.4106 130.553 24.0178C125.664 25.6489 120.157 27.0181 114.364 28.0182C111.974 28.4349 109.595 28.7682 107.24 29.0421C103.029 26.9824 98.9256 25.2798 95.1075 24.0059H95.1194ZM95.6665 29.7445C94.5603 29.7445 93.4898 29.7207 92.455 29.6731C90.6233 28.292 88.8391 27.1014 87.162 26.1132C89.1008 25.7561 91.1823 25.2322 93.3947 24.5536C97.07 25.7085 101.078 27.2919 105.206 29.2445C101.887 29.5659 98.6758 29.7326 95.6665 29.7326V29.7445ZM93.9061 30.7922C94.489 30.8041 95.0599 30.816 95.6665 30.816C99.2348 30.816 103.089 30.5898 107.049 30.1493C109.143 31.1851 111.272 32.3042 113.377 33.5186C118.528 36.4474 123.214 39.6143 127.187 42.7574C121.989 42.6384 116.303 42.055 110.594 41.0668C108.179 40.6501 105.824 40.162 103.541 39.6262C100.293 36.2688 97.0225 33.2924 93.8942 30.816L93.9061 30.7922ZM117.552 59.2111C112.783 57.3657 107.656 54.9251 102.541 52.0201C100.412 50.8176 98.3665 49.5556 96.4159 48.2817C94.5247 44.0194 92.4907 40.1382 90.4092 36.7689C94.1202 38.1856 98.3665 39.4834 103.005 40.5787C104.611 42.2574 106.205 44.0194 107.775 45.8648C111.593 50.3533 114.9 54.9132 117.552 59.1992V59.2111ZM91.1585 59.604C89.5885 57.7586 88.1017 55.8894 86.6982 54.0321C86.4127 49.4603 85.8536 45.1148 85.0686 41.2097C88.0541 43.7932 91.5867 46.4363 95.5357 49.0079C96.4753 51.1271 97.3555 53.3297 98.2 55.5918C100.234 61.1041 101.768 66.5093 102.767 71.4383C102.446 71.1644 102.137 70.8787 101.804 70.593C98.2833 67.438 94.6555 63.7234 91.1466 59.604H91.1585ZM72.4011 41.9359C73.4597 39.912 74.3399 37.9951 75.0179 36.1974C75.6958 37.9951 76.576 39.912 77.6346 41.9359C77.1232 45.6862 76.2549 49.8413 75.0179 54.2107C73.7927 49.8413 72.9126 45.6743 72.4011 41.9359ZM66.3469 39.9596C67.4649 38.9476 68.4997 37.9237 69.4513 36.9236C69.9271 36.4236 70.3672 35.9355 70.7835 35.4592C70.7954 37.3761 70.9619 39.4834 71.2474 41.7335C69.4632 45.079 67.2033 48.6984 64.527 52.3891C64.8839 47.865 65.5143 43.6504 66.335 39.9596H66.3469ZM64.9433 41.1978C64.1702 45.0433 63.6112 49.3651 63.3257 54.044C61.9341 55.8894 60.4473 57.7586 58.8653 59.604C55.0472 64.0925 51.0745 68.1166 47.2564 71.4383C48.2555 66.5093 49.778 61.1041 51.8119 55.5918C52.6564 53.3178 53.5366 51.1152 54.4763 49.0079C58.3538 46.472 61.8984 43.8289 64.9314 41.2097L64.9433 41.1978ZM61.3274 36.0902C63.4565 35.2211 65.3834 34.2925 67.0724 33.3519C66.4182 35.1616 65.8354 37.2094 65.324 39.4357C62.4455 42.0193 59.0556 44.6385 55.3208 47.1625C57.2239 43.0432 59.2697 39.2929 61.3274 36.0902ZM59.6265 36.757C57.545 40.1263 55.4992 44.0194 53.6199 48.2817C51.6573 49.5556 49.6115 50.8057 47.4943 52.0082C42.3678 54.9251 37.2294 57.3657 32.4479 59.2111C35.1479 54.8536 38.4783 50.3056 42.2608 45.8648C43.8427 44.0194 45.4366 42.2574 47.0304 40.5787C51.6692 39.4834 55.9155 38.1856 59.6265 36.757ZM57.9138 30.7327C58.1873 30.7208 58.449 30.7089 58.7226 30.697C59.5909 30.6493 60.4354 30.5779 61.2442 30.5065C62.3385 30.3993 63.3852 30.2683 64.3724 30.1017C63.1354 31.578 61.8865 33.2805 60.6495 35.1854C57.0812 36.626 52.9538 37.9713 48.4696 39.1262C51.6811 35.8878 54.8926 33.0543 57.9257 30.7446L57.9138 30.7327ZM54.3692 30.816C54.964 30.816 55.5468 30.816 56.1296 30.7922C53.0014 33.2686 49.7423 36.245 46.4952 39.6024C44.2114 40.1382 41.8563 40.6263 39.4418 41.043C33.7325 42.0312 28.0351 42.6146 22.8372 42.7455C26.8219 39.6024 31.4963 36.4355 36.6466 33.5067C38.7638 32.3042 40.881 31.1732 42.9744 30.1374C46.9352 30.5779 50.789 30.8041 54.3573 30.8041L54.3692 30.816ZM19.5187 24.0178C24.3359 22.4106 29.8311 21.0176 35.6713 20.0056C38.062 19.5889 40.4409 19.2437 42.7841 18.9817C46.9947 21.0414 51.0983 22.732 54.9164 24.0178C51.0983 25.2918 46.9947 26.9943 42.7841 29.054C40.4409 28.7801 38.062 28.4468 35.6713 28.0301C29.8311 27.0181 24.3359 25.6251 19.5187 24.0178ZM20.7438 5.25445C20.839 5.25445 20.946 5.25445 21.0412 5.25445C25.2518 8.68329 30.3664 12.1598 36.1114 15.4338C37.7647 16.3744 39.418 17.2554 41.0713 18.1007C39.2277 18.3388 37.3603 18.6127 35.4929 18.9341C28.9628 20.0652 22.9681 21.6248 17.8297 23.4107C7.29129 19.6842 0.440125 14.9814 1.13 11.1597C1.29652 10.2191 1.95071 9.37383 3.00931 8.62377C6.01859 6.50455 12.394 5.23064 20.72 5.23064L20.7438 5.25445ZM39.4418 6.98078C41.8563 7.39748 44.2114 7.88561 46.4952 8.42137C49.7423 11.7907 53.0014 14.7552 56.1296 17.2316C55.5587 17.2197 54.9758 17.2078 54.3692 17.2078C50.789 17.2078 46.9471 17.434 42.9863 17.8745C40.8929 16.8387 38.7757 15.7196 36.6585 14.5052C31.5082 11.5764 26.8219 8.40946 22.8491 5.26635C25.0972 5.31398 27.4285 5.45685 29.8192 5.68306C32.9594 5.96879 36.2065 6.4093 39.4418 6.96887V6.98078ZM59.6265 11.2668C55.9155 9.83815 51.6692 8.54042 47.0304 7.4451C45.4247 5.7783 43.8308 4.00435 42.2608 2.15897C38.4427 -2.32948 35.136 -6.88937 32.4836 -11.1754C37.2532 -9.33004 42.3797 -6.88937 47.4943 -3.98438C49.6234 -2.77 51.6692 -1.5199 53.6199 -0.257893C55.5111 4.00435 57.545 7.89751 59.6265 11.2668ZM65.3358 8.63567C65.8473 10.8501 66.4301 12.8741 67.0724 14.6838C65.3715 13.7432 63.4565 12.8265 61.3274 11.9455C59.2697 8.75473 57.2358 5.00443 55.3327 0.885056C59.127 3.45669 62.505 6.08785 65.3358 8.63567ZM64.9433 6.8141C61.9578 4.24247 58.4371 1.5994 54.4763 -0.972233C53.5485 -3.09145 52.6564 -5.29401 51.8119 -7.55609C49.778 -13.0684 48.2436 -18.4736 47.2564 -23.4026C51.0745 -20.0809 55.0472 -16.0568 58.8653 -11.5683C60.4354 -9.72293 61.9222 -7.85373 63.3257 -6.00835C63.6112 -1.34131 64.1702 2.98046 64.9433 6.8141ZM65.3834 -29.8555C67.8218 -25.4385 70.1769 -20.3428 72.1989 -14.8662C73.0434 -12.5922 73.7809 -10.342 74.4469 -8.13947C73.1029 -3.66293 72.1275 0.587414 71.5209 4.45677C69.6059 1.02793 67.2152 -2.63903 64.3962 -6.38933C64.2535 -8.68713 64.1821 -11.0564 64.1821 -13.4732C64.1821 -19.3189 64.6222 -24.9027 65.3834 -29.8555ZM85.1043 6.8141C85.8774 2.98046 86.4365 -1.35322 86.7219 -6.02026C88.1136 -7.87755 89.6123 -9.73484 91.1704 -11.5683C95.0004 -16.0687 98.985 -20.0928 102.815 -23.4264C101.804 -18.426 100.246 -13.0208 98.2238 -7.55609C97.3912 -5.29401 96.4991 -3.09145 95.5595 -0.972233C91.6105 1.5994 88.0898 4.24247 85.1043 6.8141ZM88.7202 11.9455C86.5911 12.8265 84.6642 13.7432 82.9633 14.6838C83.0704 14.3742 83.1893 14.0647 83.2845 13.7432C83.8078 12.1836 84.2836 10.4692 84.6999 8.63567C87.5308 6.08785 90.9207 3.45669 94.7031 0.885056C92.8 4.99253 90.7541 8.74282 88.7083 11.9336L88.7202 11.9455ZM90.4092 11.2787C92.4907 7.90942 94.5247 4.02816 96.4159 -0.234081C98.3665 -1.50799 100.412 -2.75809 102.541 -3.97247C107.656 -6.87746 112.783 -9.31814 117.552 -11.1635C114.9 -6.87747 111.593 -2.31758 107.775 2.17087C106.205 4.01625 104.599 5.7902 103.005 7.457C98.3665 8.55233 94.1202 9.85006 90.4092 11.2787ZM92.1339 17.303C89.7669 17.4102 87.6021 17.6245 85.6752 17.934C86.9122 16.4577 88.1612 14.7552 89.3982 12.8503C92.9665 11.3978 97.0938 10.0524 101.578 8.9095C98.3665 12.1479 95.1551 14.9814 92.122 17.2911L92.1339 17.303ZM95.6665 17.2197C95.0718 17.2197 94.489 17.2197 93.9061 17.2435C97.0344 14.7671 100.293 11.8026 103.552 8.43327C105.824 7.89751 108.179 7.40938 110.606 6.99268C116.327 5.9926 122.024 5.42113 127.246 5.29016C123.202 8.46899 118.492 11.624 113.389 14.529C111.272 15.7315 109.155 16.8625 107.061 17.8983C103.101 17.4578 99.2586 17.2316 95.6784 17.2316L95.6665 17.2197ZM87.162 21.9105C88.8391 20.9343 90.6233 19.7318 92.455 18.3507C93.4898 18.315 94.5603 18.2912 95.6546 18.2912C98.6639 18.2912 101.887 18.4579 105.206 18.7793C101.067 20.7319 97.07 22.3153 93.3947 23.4821C91.1942 22.8035 89.1008 22.2796 87.162 21.9224V21.9105ZM82.8801 24.0297C83.7721 23.6845 84.6999 23.2559 85.6633 22.7439C87.4713 23.0059 89.4339 23.4464 91.5273 24.0297C89.4339 24.6131 87.4713 25.0417 85.6633 25.3156C84.6999 24.8036 83.7602 24.375 82.8801 24.0297ZM85.6752 30.1136C87.6021 30.435 89.7669 30.6493 92.1339 30.7446C95.1669 33.0543 98.3665 35.8878 101.59 39.1262C97.1057 37.9832 92.9784 36.6379 89.4101 35.1854C88.173 33.2805 86.9241 31.578 85.6871 30.1017L85.6752 30.1136ZM82.3448 31.7685C81.9285 30.7565 81.4884 29.8516 81.0483 29.0182C81.9523 29.3159 82.9395 29.5778 84.0219 29.804C85.1995 31.1256 86.4008 32.6733 87.6021 34.4234C85.6395 33.5543 83.8792 32.6614 82.3567 31.7566L82.3448 31.7685ZM83.5818 35.233C83.3796 34.5782 83.1655 33.9591 82.9633 33.3638C84.6523 34.3044 86.5911 35.233 88.7202 36.114C90.7779 39.3167 92.8119 43.0551 94.715 47.1744C90.9207 44.6028 87.5308 41.9716 84.6999 39.4238C84.3669 37.9475 83.9862 36.5665 83.5937 35.2449L83.5818 35.233ZM79.2166 33.7686C79.169 32.6733 79.0739 31.6613 78.9311 30.7327C79.6805 31.316 80.525 31.9113 81.4646 32.4947C81.8452 33.4353 82.2021 34.4472 82.5351 35.5426C82.7849 36.3522 83.0228 37.1975 83.2488 38.0666C81.6906 36.5903 80.3347 35.1378 79.2166 33.7686ZM78.7765 41.7574C79.062 39.5072 79.2166 37.3999 79.2404 35.483C80.5131 36.9474 82.0118 38.4714 83.7127 40.0191C84.5572 43.7694 85.1519 47.9721 85.5087 52.4368C82.8325 48.7341 80.5606 45.1148 78.7884 41.7574H78.7765ZM72.3654 29.6254C72.7104 29.2921 73.0196 28.9706 73.3051 28.6492C73.3051 29.0659 73.3289 29.5064 73.3764 29.9707C73.0077 30.685 72.5319 31.4351 71.9848 32.2209C72.0681 31.2803 72.187 30.4112 72.3654 29.6373V29.6254ZM70.5694 28.411C70.9976 28.2206 71.4139 28.0182 71.7826 27.8158C71.6399 28.2086 71.509 28.6373 71.402 29.0897C70.7954 29.6254 70.1055 30.1731 69.3086 30.7208C69.713 29.8635 70.1293 29.1016 70.5694 28.423V28.411ZM68.9755 29.0182C68.5117 29.8397 68.0835 30.7684 67.6671 31.7685C66.1447 32.6733 64.3724 33.5662 62.4098 34.4353C63.6112 32.6852 64.8125 31.1375 65.99 29.8159C67.0724 29.5897 68.0716 29.3278 68.9755 29.0182ZM64.3486 22.7439C65.3121 23.2559 66.2517 23.6845 67.1319 24.0297C66.2398 24.375 65.3121 24.8036 64.3486 25.3156C62.5407 25.0536 60.5781 24.625 58.4847 24.0297C60.5781 23.4464 62.5407 23.0059 64.3486 22.7439ZM62.8499 21.9105C60.9111 22.2677 58.8296 22.7916 56.6292 23.4702C52.9538 22.3153 48.9454 20.72 44.8061 18.7674C48.1247 18.446 51.3362 18.2793 54.3573 18.2793C55.4635 18.2793 56.534 18.3031 57.5569 18.3388C59.3887 19.7199 61.1728 20.9105 62.8499 21.8986V21.9105ZM65.4905 19.2556C66.216 20.0532 66.9416 20.7557 67.6434 21.3748C66.6561 21.3986 65.6094 21.4938 64.4913 21.6486C62.9094 20.7914 61.2204 19.7318 59.46 18.4698C61.6843 18.6246 63.7063 18.8865 65.4905 19.2556ZM60.6138 12.8622C61.8508 14.7671 63.1116 16.4696 64.3367 17.9459C62.4098 17.6245 60.2451 17.4221 57.89 17.3149C54.8569 15.0052 51.6454 12.1717 48.4339 8.93331C52.9181 10.0763 57.0455 11.4216 60.6138 12.8741V12.8622ZM70.7716 12.5765C69.5108 11.124 68.024 9.61194 66.3231 8.0642C65.5024 4.37343 64.8839 0.170712 64.5151 -4.35345C67.1795 -0.662685 69.4513 2.95665 71.2355 6.30215C70.9381 8.56424 70.7835 10.6596 70.7716 12.5765ZM74.4351 13.4694C74.0901 14.5171 73.8284 15.4934 73.6381 16.4101C73.1386 15.6005 72.5557 14.779 71.8778 13.9218C71.8421 12.1717 71.9372 10.2191 72.1632 8.11182C73.1029 10.0167 73.876 11.8264 74.4469 13.4813L74.4351 13.4694ZM77.6227 6.12357C76.921 7.457 76.3025 8.76663 75.7553 10.0286C75.4818 10.6596 75.2439 11.2668 75.0179 11.8502C74.3399 10.0525 73.4597 8.13563 72.4011 6.09975C72.9126 2.34946 73.7809 -1.80563 75.0179 -6.17503C76.2549 -1.80563 77.1232 2.36136 77.6346 6.11166L77.6227 6.12357ZM78.5148 4.49249C77.9082 0.623131 76.9329 -3.63911 75.5769 -8.12757C76.243 -10.3301 76.9923 -12.5922 77.8249 -14.8543C79.847 -20.3309 82.1902 -25.4266 84.6404 -29.8436C85.4136 -24.8908 85.8418 -19.307 85.8418 -13.4613C85.8418 -11.0445 85.7704 -8.67523 85.6158 -6.37743C82.8563 -2.68666 80.4417 0.992203 78.491 4.48058L78.5148 4.49249ZM83.6889 8.0761C81.9999 9.61194 80.5012 11.124 79.2523 12.5884C79.2285 10.6715 79.0739 8.55233 78.7765 6.29025C80.5844 2.88521 82.8563 -0.710308 85.4968 -4.35345C85.14 0.182617 84.5096 4.39724 83.6889 8.08801V8.0761ZM81.4646 15.5886C80.525 16.1601 79.6805 16.7554 78.9311 17.3387C79.0739 16.3982 79.169 15.3862 79.2166 14.3028C80.3228 12.9336 81.6787 11.5049 83.2131 10.0286C83.1536 10.2668 83.0942 10.5049 83.0347 10.7311C82.5589 12.505 82.0356 14.1361 81.4646 15.5767V15.5886ZM81.0364 19.0532C81.5003 18.2317 81.9285 17.3149 82.3448 16.3029C83.8673 15.3981 85.6277 14.4933 87.5902 13.6361C86.3889 15.3862 85.1876 16.9459 84.0219 18.2555C82.9395 18.4817 81.9404 18.7436 81.0364 19.0532ZM80.7153 21.4105C80.2395 21.4462 79.7756 21.4938 79.3593 21.5653C79.621 21.2557 79.8827 20.9105 80.1325 20.5533C80.8818 20.2437 81.7382 19.9699 82.666 19.708C81.9999 20.3628 81.3457 20.9343 80.7153 21.4105ZM82.3686 21.3986C83.0823 20.7795 83.7959 20.0651 84.5215 19.2794C86.3056 18.9103 88.3277 18.6484 90.5519 18.4936C88.7916 19.7437 87.1026 20.8152 85.5206 21.6724C84.4025 21.5176 83.3439 21.4224 82.3686 21.3986ZM81.0483 23.4345C80.6677 23.3273 80.299 23.244 79.9421 23.1844C80.3109 22.982 80.6677 22.7439 81.0364 22.4701C81.31 22.4582 81.5836 22.4582 81.8452 22.4582C82.4519 22.4582 83.106 22.4939 83.7721 22.5534C82.9038 22.9463 82.0712 23.2678 81.2862 23.5059C81.2148 23.4821 81.1316 23.4583 81.0602 23.4345H81.0483ZM82.3686 26.7085C83.3558 26.6847 84.4025 26.5895 85.5206 26.4347C87.1026 27.28 88.7916 28.3515 90.5519 29.6135C88.3277 29.4587 86.3056 29.1849 84.5215 28.8278C83.7959 28.0301 83.0704 27.3157 82.3686 26.7085ZM79.3712 26.5418C79.7994 26.6133 80.2395 26.649 80.7153 26.6847C81.3457 27.1609 81.9999 27.7324 82.666 28.3872C81.7382 28.1372 80.8937 27.8634 80.1443 27.5538C79.8946 27.1848 79.6329 26.8514 79.3712 26.5418ZM78.2293 27.8396C78.5981 28.042 79.0025 28.2444 79.4307 28.4349C79.8708 29.1016 80.2871 29.8755 80.7034 30.7327C79.9184 30.1969 79.2166 29.6492 78.6219 29.1135C78.5148 28.6611 78.384 28.2444 78.2412 27.8396H78.2293ZM76.6474 30.0183C76.695 29.554 76.7188 29.1016 76.7307 28.673C77.0161 28.9944 77.3135 29.3278 77.6703 29.6492C77.8487 30.435 77.9677 31.3041 78.0509 32.2447C77.4919 31.4708 77.028 30.7208 76.6593 30.0064L76.6474 30.0183ZM69.3205 26.6847C69.7962 26.649 70.2601 26.6014 70.6764 26.53C70.4147 26.8395 70.165 27.1848 69.9152 27.5419C69.1658 27.8515 68.3094 28.1372 67.3817 28.3872C68.0478 27.7324 68.702 27.1609 69.3324 26.6847H69.3205ZM67.6671 26.7085C66.9535 27.3157 66.2398 28.0301 65.5143 28.8278C63.7301 29.1849 61.7081 29.4468 59.4838 29.6135C61.2442 28.3515 62.9332 27.28 64.5151 26.4347C65.6332 26.5895 66.6918 26.6847 67.6671 26.7085ZM70.0936 24.9227C69.7368 25.137 69.368 25.3632 68.9993 25.637C68.7257 25.6489 68.4522 25.6608 68.1905 25.6608C67.5839 25.6608 66.9297 25.6251 66.2636 25.5656C67.1319 25.1727 67.9764 24.8512 68.7495 24.6012C69.2134 24.7441 69.6535 24.8393 70.0936 24.9227ZM68.9993 22.4701C69.368 22.7439 69.7368 22.982 70.0936 23.1844C69.6654 23.2678 69.2134 23.3749 68.7495 23.5059C67.9645 23.2678 67.1319 22.9463 66.2636 22.5534C66.9297 22.4939 67.5839 22.4582 68.1905 22.4582C68.4522 22.4582 68.7257 22.4582 68.9993 22.4701ZM69.9033 20.5533C70.1531 20.9224 70.4147 21.2557 70.6764 21.5653C70.2482 21.4938 69.8081 21.4462 69.3324 21.4105C68.702 20.9343 68.0478 20.3628 67.3817 19.708C68.3094 19.958 69.1539 20.2318 69.9033 20.5533ZM67.6909 16.3148C67.6909 16.3148 67.7028 16.3625 67.7147 16.3863C67.7504 16.4577 67.7742 16.5292 67.8099 16.6006C67.8931 16.7911 67.9645 16.9578 68.0478 17.1363C68.357 17.8269 68.6782 18.4698 68.9993 19.0532C68.0953 18.7555 67.0962 18.4936 66.0138 18.2555C64.8482 16.9339 63.6468 15.3862 62.4455 13.6361C64.4081 14.5052 66.1803 15.3981 67.7028 16.3029L67.6909 16.3148ZM73.3051 19.4222C73.0315 19.1008 72.7223 18.7674 72.3773 18.446C72.1989 17.6602 72.0681 16.7911 71.9848 15.8505C72.5438 16.6244 72.9958 17.3626 73.3764 18.0769C73.3289 18.5531 73.3051 18.9936 73.2932 19.4222H73.3051ZM75.5531 17.8983C75.339 18.315 75.1606 18.7317 75.0179 19.1365C74.8751 18.7436 74.6967 18.3388 74.4945 17.9221C74.6016 17.1244 74.78 16.2672 75.0298 15.3386C75.2795 16.2553 75.458 17.1125 75.565 17.9102L75.5531 17.8983ZM77.6584 18.446C77.3135 18.7793 77.0042 19.1008 76.7188 19.4341C76.7188 19.0055 76.695 18.565 76.6355 18.0888C77.0161 17.3745 77.48 16.6244 78.0271 15.8505C77.9439 16.7911 77.813 17.6602 77.6465 18.446H77.6584ZM79.4545 19.6604C79.0144 19.8508 78.61 20.0532 78.2293 20.2675C78.3721 19.8747 78.5029 19.4461 78.61 18.9936C79.2166 18.4579 79.9065 17.9102 80.7034 17.3745C80.299 18.2317 79.8827 18.9936 79.4545 19.6723V19.6604ZM71.4258 18.9936C71.5328 19.4461 71.6637 19.8628 71.8064 20.2675C71.4377 20.0532 71.0333 19.8628 70.6051 19.6723C70.165 19.0055 69.7487 18.2317 69.3324 17.3745C70.1174 17.9102 70.8192 18.4579 71.4139 18.9936H71.4258ZM81.0483 25.6251C80.6796 25.3513 80.3109 25.1251 79.954 24.9108C80.3822 24.8274 80.8342 24.7322 81.2981 24.5893C82.0831 24.8274 82.9157 25.1489 83.784 25.5537C83.1179 25.6132 82.4638 25.6489 81.8571 25.6489C81.5955 25.6489 81.3338 25.6489 81.0483 25.6251ZM78.158 13.9218C77.48 14.779 76.8853 15.6243 76.3857 16.422C76.1954 15.4934 75.9337 14.5052 75.5888 13.4694C75.9218 12.5169 76.3025 11.5168 76.7663 10.4572C77.0994 9.68337 77.48 8.88569 77.8725 8.0761C78.0985 10.1953 78.1937 12.1717 78.158 13.9337V13.9218ZM70.8192 14.3028C70.8548 15.3862 70.95 16.3982 71.0927 17.3387C70.3434 16.7554 69.4989 16.1601 68.5711 15.5886C67.9288 13.9575 67.3341 12.0883 66.8107 10.0286C68.3451 11.5049 69.7011 12.9336 70.8192 14.3028ZM74.9465 32.4947C74.7324 31.6851 74.5778 30.9232 74.4826 30.2088C74.6967 29.7921 74.8751 29.3754 75.0179 28.9706C75.1725 29.3754 75.339 29.7802 75.5531 30.1969C75.4461 30.9946 75.2677 31.8518 75.0179 32.7685C74.9941 32.6733 74.9703 32.59 74.9465 32.4947ZM77.8725 39.9715C76.9329 38.0666 76.1716 36.2688 75.5888 34.602C75.9337 33.5662 76.1954 32.578 76.3857 31.6494C76.8853 32.459 77.48 33.2924 78.158 34.1615C78.1937 35.9116 78.0985 37.8642 77.8725 39.9715ZM44.818 29.2921C48.9573 27.3395 52.9538 25.7561 56.6411 24.6012C58.8415 25.2798 60.9349 25.8037 62.8618 26.1609C61.1847 27.149 59.4006 28.3396 57.5688 29.7088C56.534 29.7564 55.4754 29.7802 54.3692 29.7802C51.36 29.7802 48.1366 29.6135 44.818 29.2921ZM68.6663 36.2331C68.0835 36.8522 67.453 37.4713 66.7989 38.1023C67.3222 36.0307 67.9169 34.1496 68.5592 32.5066C69.4989 31.9232 70.3315 31.3399 71.0808 30.7446C70.9381 31.6851 70.8429 32.6971 70.7954 33.7924C70.165 34.5782 69.4513 35.3997 68.6544 36.2331H68.6663ZM71.8896 34.1734C72.5676 33.3162 73.1623 32.4709 73.6619 31.6732C73.8522 32.6019 74.1139 33.5781 74.4588 34.6139C73.8879 36.2688 73.1148 38.0785 72.1751 39.9834C71.9491 37.8761 71.854 35.9236 71.8896 34.1734ZM80.8104 -44.059C80.858 -43.9518 80.9056 -43.8447 80.9651 -43.7256C81.0245 -43.5947 81.084 -43.4637 81.1435 -43.3327C82.4638 -40.2373 83.5699 -36.2012 84.3906 -31.5461C81.6906 -26.8433 79.0857 -21.2834 76.8377 -15.2234C76.1835 -13.4494 75.5769 -11.6874 75.0298 -9.96104C74.4826 -11.6874 73.876 -13.4375 73.2218 -15.2234C70.9857 -21.2834 68.3808 -26.8433 65.6689 -31.5461C67.572 -42.4041 71.0927 -49.8928 75.0298 -49.8928C75.2082 -49.8928 75.3747 -49.8809 75.5531 -49.8452C77.3967 -49.5237 79.2285 -47.4878 80.8223 -44.059H80.8104ZM64.3962 54.4607C67.2152 50.7104 69.6178 47.0435 71.5209 43.6146C72.1275 47.4721 73.1029 51.7224 74.4588 56.2109C73.7927 58.4134 73.0434 60.6755 72.2108 62.9376C70.1888 68.4142 67.8456 73.5218 65.3953 77.9269C64.6341 72.9741 64.194 67.3903 64.194 61.5446C64.194 59.1278 64.2654 56.7585 64.4081 54.4607H64.3962ZM85.8655 61.5446C85.8655 67.3903 85.4255 72.9741 84.6642 77.9269C82.2259 73.5218 79.8708 68.4142 77.8487 62.9376C77.0042 60.6636 76.2668 58.4134 75.6007 56.2109C76.9448 51.7343 77.9201 47.484 78.5267 43.6146C80.4417 47.0435 82.8325 50.7104 85.6633 54.4726C85.7942 56.7823 85.8655 59.1397 85.8655 61.5446ZM123.749 72.1407C123.797 72.3074 123.844 72.4741 123.892 72.6288C123.951 72.855 124.023 73.0932 124.082 73.3194C124.082 73.3432 124.082 73.367 124.094 73.3789C124.867 76.5934 124.724 78.9984 123.606 80.308C123.499 80.439 123.369 80.558 123.238 80.6771C122.607 81.201 121.751 81.4629 120.68 81.4629C116.767 81.4629 110.737 78.1293 104.147 72.6407C103.16 67.3427 101.519 61.4256 99.2348 55.2584C98.5806 53.4845 97.8908 51.7701 97.189 50.0913C98.7353 51.0557 100.341 52.032 102.006 52.9725C107.62 56.1633 113.246 58.7944 118.444 60.7112C120.871 64.8306 122.667 68.6523 123.666 71.8669C123.69 71.9502 123.725 72.0455 123.749 72.1407ZM129.304 5.29016C140.556 5.29016 148.24 7.61178 148.894 11.2192C149.37 13.8742 146.039 17.2078 139.759 20.339C137.523 21.4581 135.001 22.5058 132.266 23.4821C127.115 21.6843 121.097 20.1366 114.555 18.9936C112.687 18.6722 110.82 18.3864 108.976 18.1602C110.63 17.3149 112.271 16.4339 113.936 15.4934C119.539 12.3026 124.677 8.81425 128.995 5.31398C129.102 5.31398 129.209 5.31398 129.316 5.31398L129.304 5.29016ZM133.836 24.0417C136.155 23.1844 138.308 22.2558 140.247 21.2914C147.086 17.8745 150.535 14.2314 149.952 11.0287C149.215 6.88553 141.876 4.36152 130.267 4.23056C132.147 2.63519 133.859 1.03983 135.346 -0.531723C140.58 -6.04407 142.566 -10.6278 140.913 -13.4494C139.878 -15.2234 137.582 -16.1163 134.085 -16.1163C130.362 -16.1163 125.486 -15.0805 120.074 -13.2113C125.545 -22.8073 127.282 -30.6294 123.928 -33.4034C123.095 -34.082 122.001 -34.4392 120.68 -34.4392C116.743 -34.4392 110.856 -31.3199 104.421 -26.1171C104.825 -28.5459 105.087 -30.8437 105.218 -33.0105C105.634 -40.5468 104.159 -45.3091 101.055 -46.4282C100.603 -46.5949 100.115 -46.6782 99.6035 -46.6782C95.6189 -46.6782 90.3021 -41.3802 85.2589 -33.0224C84.4858 -37.0346 83.4867 -40.5468 82.3091 -43.3566C82.2972 -43.4042 82.2734 -43.4518 82.2616 -43.4875C82.1664 -43.7018 82.0712 -43.9042 81.988 -44.1185C81.9047 -44.2852 81.8333 -44.4519 81.762 -44.6186C81.7501 -44.6543 81.7263 -44.6781 81.7144 -44.7138C79.7756 -48.7736 77.48 -50.9524 75.0417 -50.9524C70.6526 -50.9524 66.8821 -43.8447 64.8125 -33.0105C59.7574 -41.3683 54.4406 -46.6663 50.4679 -46.6663C49.9564 -46.6663 49.4687 -46.583 49.0168 -46.4163C44.8894 -44.94 43.8189 -36.9989 45.6269 -26.129C39.192 -31.3199 33.3043 -34.4273 29.3791 -34.4273C28.0589 -34.4273 26.9527 -34.082 26.132 -33.3915C22.7659 -30.6174 24.5143 -22.7954 29.9858 -13.1994C24.5619 -15.0686 19.709 -16.1044 15.9742 -16.1044C12.4891 -16.1044 10.1816 -15.2115 9.14681 -13.4375C6.95824 -9.68721 11.2997 -2.93668 19.7685 4.24247C12.7746 4.32581 7.33886 5.26636 3.96086 6.92125C1.73661 8.00467 0.404441 9.39764 0.107082 11.0406C-0.654158 15.291 5.76881 20.1723 16.2002 24.0655C5.72123 27.8872 -0.701736 32.7685 0.0595045 37.0308C0.80885 41.174 8.12389 43.6861 19.7209 43.8289C11.2521 51.0081 6.89877 57.7586 9.09923 61.5089C10.134 63.2829 12.4297 64.1758 15.9266 64.1758C19.6614 64.1758 24.5381 63.1281 29.962 61.2589C28.7368 63.4019 27.6901 65.4735 26.8337 67.4499C23.8245 74.4028 23.5628 79.3675 26.0844 81.4629C26.917 82.1534 28.0113 82.4987 29.3316 82.4987C33.2567 82.4987 39.1444 79.3913 45.5793 74.2004C43.7713 85.0703 44.8418 93.0114 48.9692 94.4877C49.4331 94.6544 49.9088 94.7377 50.4203 94.7377C54.393 94.7377 59.7098 89.4397 64.7649 81.0819C66.8345 91.9042 70.6051 99.0119 74.9941 99.0119C79.3831 99.0119 83.1536 91.9042 85.2233 81.0819C90.2665 89.4397 95.5951 94.7377 99.5679 94.7377C100.079 94.7377 100.567 94.6544 101.019 94.4877C105.146 93.0114 106.217 85.0703 104.409 74.2004C110.832 79.3913 116.72 82.4987 120.657 82.4987C121.989 82.4987 123.083 82.1534 123.904 81.4629C125.89 79.8199 126.14 76.391 124.701 71.6169C124.665 71.474 124.617 71.343 124.582 71.2002C124.546 71.093 124.498 70.974 124.463 70.8549C123.523 67.9975 122.036 64.7473 120.05 61.2589C125.462 63.1281 130.327 64.1758 134.062 64.1758C137.547 64.1758 139.854 63.2829 140.889 61.5089C143.077 57.7586 138.736 51.0081 130.267 43.8289C141.864 43.6861 149.191 41.174 149.929 37.0308C150.69 32.7685 144.255 27.8872 133.812 23.994L133.836 24.0417Z" fill="#DDE8F0"/>
</g>
<defs>
<clipPath id="clip0_4190_313">
<rect width="150" height="150" fill="white" transform="translate(0 -51)"/>
</clipPath>
</defs>
</svg>
