<svg xmlns="http://www.w3.org/2000/svg" width="30" height="30" fill="none" viewBox="0 0 30 30"><path stroke="#fff" stroke-linecap="round" stroke-linejoin="round" stroke-width="4" d="M18.375 7.87501C18.146 8.10867 18.0177 8.42282 18.0177 8.75001C18.0177 9.0772 18.146 9.39134 18.375 9.62501L20.375 11.625C20.6087 11.854 20.9228 11.9823 21.25 11.9823C21.5772 11.9823 21.8913 11.854 22.125 11.625L26.8375 6.91251C27.466 8.30149 27.6564 9.84905 27.3831 11.3489C27.1098 12.8488 26.3859 14.2298 25.3079 15.3079C24.2298 16.3859 22.8488 17.1098 21.3489 17.3831C19.849 17.6564 18.3015 17.4661 16.9125 16.8375L8.275 25.475C7.77772 25.9723 7.10326 26.2517 6.4 26.2517C5.69674 26.2517 5.02228 25.9723 4.525 25.475C4.02772 24.9777 3.74835 24.3033 3.74835 23.6C3.74835 22.8967 4.02772 22.2223 4.525 21.725L13.1625 13.0875C12.534 11.6985 12.3436 10.151 12.6169 8.65107C12.8902 7.15119 13.6141 5.7702 14.6922 4.69216C15.7702 3.61411 17.1512 2.89022 18.6511 2.61693C20.151 2.34365 21.6985 2.53396 23.0875 3.16251L18.375 7.87501Z"/></svg>